<?xml version="1.0" standalone="no"?>
<!DOCTYPE svg PUBLIC "-//W3C//DTD SVG 1.1//EN" "http://www.w3.org/Graphics/SVG/1.1/DTD/svg11.dtd">
<svg version="1.1" width="1200" height="342" onload="init(evt)" viewBox="0 0 1200 342" xmlns="http://www.w3.org/2000/svg" xmlns:xlink="http://www.w3.org/1999/xlink">
<!-- Flame graph stack visualization. See https://github.com/brendangregg/FlameGraph for latest version, and http://www.brendangregg.com/flamegraphs.html for examples. -->
<!-- NOTES:  -->
<defs>
	<linearGradient id="background" y1="0" y2="1" x1="0" x2="0" >
		<stop stop-color="#eeeeee" offset="5%" />
		<stop stop-color="#e0e0ff" offset="95%" />
	</linearGradient>
</defs>
<style type="text/css">
	text { font-family:Verdana; font-size:12px; fill:rgb(0,0,0); }
	#search, #ignorecase { opacity:0.1; cursor:pointer; }
	#search:hover, #search.show, #ignorecase:hover, #ignorecase.show { opacity:1; }
	#subtitle { text-anchor:middle; font-color:rgb(160,160,160); }
	#title { text-anchor:middle; font-size:17px}
	#unzoom { cursor:pointer; }
	#frames > *:hover { stroke:black; stroke-width:0.5; cursor:pointer; }
	.hide { display:none; }
	.parent { opacity:0.5; }
</style>
<script type="text/ecmascript">
<![CDATA[
	"use strict";
	var details, searchbtn, unzoombtn, matchedtxt, svg, searching, currentSearchTerm, ignorecase, ignorecaseBtn;
	function init(evt) {
		details = document.getElementById("details").firstChild;
		searchbtn = document.getElementById("search");
		ignorecaseBtn = document.getElementById("ignorecase");
		unzoombtn = document.getElementById("unzoom");
		matchedtxt = document.getElementById("matched");
		svg = document.getElementsByTagName("svg")[0];
		searching = 0;
		currentSearchTerm = null;
	}

	window.addEventListener("click", function(e) {
		var target = find_group(e.target);
		if (target) {
			if (target.nodeName == "a") {
				if (e.ctrlKey === false) return;
				e.preventDefault();
			}
			if (target.classList.contains("parent")) unzoom();
			zoom(target);
		}
		else if (e.target.id == "unzoom") unzoom();
		else if (e.target.id == "search") search_prompt();
		else if (e.target.id == "ignorecase") toggle_ignorecase();
	}, false)

	// mouse-over for info
	// show
	window.addEventListener("mouseover", function(e) {
		var target = find_group(e.target);
		if (target) details.nodeValue = "Function: " + g_to_text(target);
	}, false)

	// clear
	window.addEventListener("mouseout", function(e) {
		var target = find_group(e.target);
		if (target) details.nodeValue = ' ';
	}, false)

	// ctrl-F for search
	window.addEventListener("keydown",function (e) {
		if (e.keyCode === 114 || (e.ctrlKey && e.keyCode === 70)) {
			e.preventDefault();
			search_prompt();
		}
	}, false)

	// ctrl-I to toggle case-sensitive search
	window.addEventListener("keydown",function (e) {
		if (e.ctrlKey && e.keyCode === 73) {
			e.preventDefault();
			toggle_ignorecase();
		}
	}, false)

	// functions
	function find_child(node, selector) {
		var children = node.querySelectorAll(selector);
		if (children.length) return children[0];
		return;
	}
	function find_group(node) {
		var parent = node.parentElement;
		if (!parent) return;
		if (parent.id == "frames") return node;
		return find_group(parent);
	}
	function orig_save(e, attr, val) {
		if (e.attributes["_orig_" + attr] != undefined) return;
		if (e.attributes[attr] == undefined) return;
		if (val == undefined) val = e.attributes[attr].value;
		e.setAttribute("_orig_" + attr, val);
	}
	function orig_load(e, attr) {
		if (e.attributes["_orig_"+attr] == undefined) return;
		e.attributes[attr].value = e.attributes["_orig_" + attr].value;
		e.removeAttribute("_orig_"+attr);
	}
	function g_to_text(e) {
		var text = find_child(e, "title").firstChild.nodeValue;
		return (text)
	}
	function g_to_func(e) {
		var func = g_to_text(e);
		// if there's any manipulation we want to do to the function
		// name before it's searched, do it here before returning.
		return (func);
	}
	function update_text(e) {
		var r = find_child(e, "rect");
		var t = find_child(e, "text");
		var w = parseFloat(r.attributes.width.value) -3;
		var txt = find_child(e, "title").textContent.replace(/\([^(]*\)$/,"");
		t.attributes.x.value = parseFloat(r.attributes.x.value) + 3;

		// Smaller than this size won't fit anything
		if (w < 2 * 12 * 0.59) {
			t.textContent = "";
			return;
		}

		t.textContent = txt;
		// Fit in full text width
		if (/^ *$/.test(txt) || t.getSubStringLength(0, txt.length) < w)
			return;

		for (var x = txt.length - 2; x > 0; x--) {
			if (t.getSubStringLength(0, x + 2) <= w) {
				t.textContent = txt.substring(0, x) + "..";
				return;
			}
		}
		t.textContent = "";
	}

	// zoom
	function zoom_reset(e) {
		if (e.attributes != undefined) {
			orig_load(e, "x");
			orig_load(e, "width");
		}
		if (e.childNodes == undefined) return;
		for (var i = 0, c = e.childNodes; i < c.length; i++) {
			zoom_reset(c[i]);
		}
	}
	function zoom_child(e, x, ratio) {
		if (e.attributes != undefined) {
			if (e.attributes.x != undefined) {
				orig_save(e, "x");
				e.attributes.x.value = (parseFloat(e.attributes.x.value) - x - 10) * ratio + 10;
				if (e.tagName == "text")
					e.attributes.x.value = find_child(e.parentNode, "rect[x]").attributes.x.value + 3;
			}
			if (e.attributes.width != undefined) {
				orig_save(e, "width");
				e.attributes.width.value = parseFloat(e.attributes.width.value) * ratio;
			}
		}

		if (e.childNodes == undefined) return;
		for (var i = 0, c = e.childNodes; i < c.length; i++) {
			zoom_child(c[i], x - 10, ratio);
		}
	}
	function zoom_parent(e) {
		if (e.attributes) {
			if (e.attributes.x != undefined) {
				orig_save(e, "x");
				e.attributes.x.value = 10;
			}
			if (e.attributes.width != undefined) {
				orig_save(e, "width");
				e.attributes.width.value = parseInt(svg.width.baseVal.value) - (10 * 2);
			}
		}
		if (e.childNodes == undefined) return;
		for (var i = 0, c = e.childNodes; i < c.length; i++) {
			zoom_parent(c[i]);
		}
	}
	function zoom(node) {
		var attr = find_child(node, "rect").attributes;
		var width = parseFloat(attr.width.value);
		var xmin = parseFloat(attr.x.value);
		var xmax = parseFloat(xmin + width);
		var ymin = parseFloat(attr.y.value);
		var ratio = (svg.width.baseVal.value - 2 * 10) / width;

		// XXX: Workaround for JavaScript float issues (fix me)
		var fudge = 0.0001;

		unzoombtn.classList.remove("hide");

		var el = document.getElementById("frames").children;
		for (var i = 0; i < el.length; i++) {
			var e = el[i];
			var a = find_child(e, "rect").attributes;
			var ex = parseFloat(a.x.value);
			var ew = parseFloat(a.width.value);
			var upstack;
			// Is it an ancestor
			if (0 == 0) {
				upstack = parseFloat(a.y.value) > ymin;
			} else {
				upstack = parseFloat(a.y.value) < ymin;
			}
			if (upstack) {
				// Direct ancestor
				if (ex <= xmin && (ex+ew+fudge) >= xmax) {
					e.classList.add("parent");
					zoom_parent(e);
					update_text(e);
				}
				// not in current path
				else
					e.classList.add("hide");
			}
			// Children maybe
			else {
				// no common path
				if (ex < xmin || ex + fudge >= xmax) {
					e.classList.add("hide");
				}
				else {
					zoom_child(e, xmin, ratio);
					update_text(e);
				}
			}
		}
		search();
	}
	function unzoom() {
		unzoombtn.classList.add("hide");
		var el = document.getElementById("frames").children;
		for(var i = 0; i < el.length; i++) {
			el[i].classList.remove("parent");
			el[i].classList.remove("hide");
			zoom_reset(el[i]);
			update_text(el[i]);
		}
		search();
	}

	// search
	function toggle_ignorecase() {
		ignorecase = !ignorecase;
		if (ignorecase) {
			ignorecaseBtn.classList.add("show");
		} else {
			ignorecaseBtn.classList.remove("show");
		}
		reset_search();
		search();
	}
	function reset_search() {
		var el = document.querySelectorAll("#frames rect");
		for (var i = 0; i < el.length; i++) {
			orig_load(el[i], "fill")
		}
	}
	function search_prompt() {
		if (!searching) {
			var term = prompt("Enter a search term (regexp " +
			    "allowed, eg: ^ext4_)"
			    + (ignorecase ? ", ignoring case" : "")
			    + "\nPress Ctrl-i to toggle case sensitivity", "");
			if (term != null) {
				currentSearchTerm = term;
				search();
			}
		} else {
			reset_search();
			searching = 0;
			currentSearchTerm = null;
			searchbtn.classList.remove("show");
			searchbtn.firstChild.nodeValue = "Search"
			matchedtxt.classList.add("hide");
			matchedtxt.firstChild.nodeValue = ""
		}
	}
	function search(term) {
		if (currentSearchTerm === null) return;
		var term = currentSearchTerm;

		var re = new RegExp(term, ignorecase ? 'i' : '');
		var el = document.getElementById("frames").children;
		var matches = new Object();
		var maxwidth = 0;
		for (var i = 0; i < el.length; i++) {
			var e = el[i];
			var func = g_to_func(e);
			var rect = find_child(e, "rect");
			if (func == null || rect == null)
				continue;

			// Save max width. Only works as we have a root frame
			var w = parseFloat(rect.attributes.width.value);
			if (w > maxwidth)
				maxwidth = w;

			if (func.match(re)) {
				// highlight
				var x = parseFloat(rect.attributes.x.value);
				orig_save(rect, "fill");
				rect.attributes.fill.value = "rgb(230,0,230)";

				// remember matches
				if (matches[x] == undefined) {
					matches[x] = w;
				} else {
					if (w > matches[x]) {
						// overwrite with parent
						matches[x] = w;
					}
				}
				searching = 1;
			}
		}
		if (!searching)
			return;

		searchbtn.classList.add("show");
		searchbtn.firstChild.nodeValue = "Reset Search";

		// calculate percent matched, excluding vertical overlap
		var count = 0;
		var lastx = -1;
		var lastw = 0;
		var keys = Array();
		for (k in matches) {
			if (matches.hasOwnProperty(k))
				keys.push(k);
		}
		// sort the matched frames by their x location
		// ascending, then width descending
		keys.sort(function(a, b){
			return a - b;
		});
		// Step through frames saving only the biggest bottom-up frames
		// thanks to the sort order. This relies on the tree property
		// where children are always smaller than their parents.
		var fudge = 0.0001;	// JavaScript floating point
		for (var k in keys) {
			var x = parseFloat(keys[k]);
			var w = matches[keys[k]];
			if (x >= lastx + lastw - fudge) {
				count += w;
				lastx = x;
				lastw = w;
			}
		}
		// display matched percent
		matchedtxt.classList.remove("hide");
		var pct = 100 * count / maxwidth;
		if (pct != 100) pct = pct.toFixed(1)
		matchedtxt.firstChild.nodeValue = "Matched: " + pct + "%";
	}
]]>
</script>
<rect x="0.0" y="0" width="1200.0" height="342.0" fill="url(#background)"  />
<text id="title" x="600.00" y="24" >Off-CPU Time Flame Graph (30s): $ ./hybridge ./ge_data/size8192x8192</text>
<text id="details" x="10.00" y="325" > </text>
<text id="unzoom" x="10.00" y="24" class="hide">Reset Zoom</text>
<text id="search" x="1090.00" y="24" >Search</text>
<text id="ignorecase" x="1174.00" y="24" >ic</text>
<text id="matched" x="1090.00" y="325" > </text>
<g id="frames">
<g >
<title>prepare_exit_to_usermode (4,394 us, 0.22%)</title><rect x="10.4" y="197" width="2.5" height="15.0" fill="rgb(114,114,223)" rx="2" ry="2" />
<text  x="13.38" y="207.5" ></text>
</g>
<g >
<title>idtentry_exit_cond_rcu (39,234 us, 1.94%)</title><rect x="12.9" y="213" width="22.9" height="15.0" fill="rgb(107,107,191)" rx="2" ry="2" />
<text  x="15.94" y="223.5" >i..</text>
</g>
<g >
<title>__prepare_exit_to_usermode (3,629 us, 0.18%)</title><rect x="1051.3" y="133" width="2.1" height="15.0" fill="rgb(94,94,205)" rx="2" ry="2" />
<text  x="1054.32" y="143.5" ></text>
</g>
<g >
<title>prepare_exit_to_usermode (196 us, 0.01%)</title><rect x="1188.7" y="101" width="0.1" height="15.0" fill="rgb(120,120,239)" rx="2" ry="2" />
<text  x="1191.73" y="111.5" ></text>
</g>
<g >
<title>prepare_exit_to_usermode (184 us, 0.01%)</title><rect x="1188.6" y="117" width="0.1" height="15.0" fill="rgb(83,83,234)" rx="2" ry="2" />
<text  x="1191.58" y="127.5" ></text>
</g>
<g >
<title>idtentry_exit_cond_rcu (421 us, 0.02%)</title><rect x="1063.5" y="165" width="0.3" height="15.0" fill="rgb(134,134,217)" rx="2" ry="2" />
<text  x="1066.51" y="175.5" ></text>
</g>
<g >
<title>schedule (17,279 us, 0.85%)</title><rect x="1053.4" y="117" width="10.1" height="15.0" fill="rgb(97,97,236)" rx="2" ry="2" />
<text  x="1056.43" y="127.5" ></text>
</g>
<g >
<title>schedule (574 us, 0.03%)</title><rect x="1187.6" y="133" width="0.3" height="15.0" fill="rgb(128,128,211)" rx="2" ry="2" />
<text  x="1190.58" y="143.5" ></text>
</g>
<g >
<title>[Missed Kernel Stack] (310 us, 0.02%)</title><rect x="1063.9" y="213" width="0.2" height="15.0" fill="rgb(137,137,220)" rx="2" ry="2" />
<text  x="1066.88" y="223.5" ></text>
</g>
<g >
<title>__x64_sys_futex (1,736,972 us, 85.83%)</title><rect x="38.5" y="197" width="1012.8" height="15.0" fill="rgb(111,111,218)" rx="2" ry="2" />
<text  x="41.48" y="207.5" >__x64_sys_futex</text>
</g>
<g >
<title>__prepare_exit_to_usermode (7,729 us, 0.38%)</title><rect x="1167.2" y="149" width="4.5" height="15.0" fill="rgb(131,131,240)" rx="2" ry="2" />
<text  x="1170.22" y="159.5" ></text>
</g>
<g >
<title>__prepare_exit_to_usermode (165,351 us, 8.17%)</title><rect x="1070.8" y="149" width="96.4" height="15.0" fill="rgb(138,138,194)" rx="2" ry="2" />
<text  x="1073.80" y="159.5" >__prepare_e..</text>
</g>
<g >
<title>- (602 us, 0.03%)</title><rect x="1189.5" y="245" width="0.4" height="15.0" fill="rgb(200,200,200)" rx="2" ry="2" />
<text  x="1192.53" y="255.5" ></text>
</g>
<g >
<title>- (246 us, 0.01%)</title><rect x="1188.6" y="181" width="0.1" height="15.0" fill="rgb(200,200,200)" rx="2" ry="2" />
<text  x="1191.58" y="191.5" ></text>
</g>
<g >
<title>prepare_exit_to_usermode (3,629 us, 0.18%)</title><rect x="1051.3" y="149" width="2.1" height="15.0" fill="rgb(131,131,213)" rx="2" ry="2" />
<text  x="1054.32" y="159.5" ></text>
</g>
<g >
<title>__libc_malloc (253 us, 0.01%)</title><rect x="1188.4" y="261" width="0.2" height="15.0" fill="rgb(128,128,232)" rx="2" ry="2" />
<text  x="1191.44" y="271.5" ></text>
</g>
<g >
<title>idtentry_exit_cond_rcu (196 us, 0.01%)</title><rect x="1188.7" y="117" width="0.1" height="15.0" fill="rgb(91,91,203)" rx="2" ry="2" />
<text  x="1191.73" y="127.5" ></text>
</g>
<g >
<title>idtentry_exit_cond_rcu (1,387 us, 0.07%)</title><rect x="37.1" y="213" width="0.8" height="15.0" fill="rgb(106,106,206)" rx="2" ry="2" />
<text  x="40.07" y="223.5" ></text>
</g>
<g >
<title>prepare_exit_to_usermode (1,387 us, 0.07%)</title><rect x="37.1" y="197" width="0.8" height="15.0" fill="rgb(132,132,224)" rx="2" ry="2" />
<text  x="40.07" y="207.5" ></text>
</g>
<g >
<title>finish_task_switch (11,504 us, 0.57%)</title><rect x="1064.1" y="117" width="6.7" height="15.0" fill="rgb(111,111,240)" rx="2" ry="2" />
<text  x="1067.09" y="127.5" ></text>
</g>
<g >
<title>sysvec_apic_timer_interrupt (574 us, 0.03%)</title><rect x="1187.6" y="197" width="0.3" height="15.0" fill="rgb(131,131,199)" rx="2" ry="2" />
<text  x="1190.58" y="207.5" ></text>
</g>
<g >
<title>sysvec_apic_timer_interrupt (196 us, 0.01%)</title><rect x="1188.7" y="133" width="0.1" height="15.0" fill="rgb(95,95,244)" rx="2" ry="2" />
<text  x="1191.73" y="143.5" ></text>
</g>
<g >
<title>Utility::InitializeArray(std::__cxx11::basic_string&lt;char, std::char_traits&lt;char&gt;, std::allocator&lt;char&gt; &gt;&amp;, std::__cxx11::basic_string&lt;char, std::char_traits&lt;char&gt;, std::allocator&lt;char&gt; &gt;&amp;, double*, double*, double*, int, int, bool, std::__cxx11::basic_string&lt;char, std::char_traits&lt;char&gt;, std::allocator&lt;char&gt; &gt;*, double*) (1,609 us, 0.08%)</title><rect x="1188.6" y="213" width="0.9" height="15.0" fill="rgb(80,80,201)" rx="2" ry="2" />
<text  x="1191.58" y="223.5" ></text>
</g>
<g >
<title>schedule (165,351 us, 8.17%)</title><rect x="1070.8" y="133" width="96.4" height="15.0" fill="rgb(93,93,224)" rx="2" ry="2" />
<text  x="1073.80" y="143.5" >schedule</text>
</g>
<g >
<title>prepare_exit_to_usermode (17,279 us, 0.85%)</title><rect x="1053.4" y="149" width="10.1" height="15.0" fill="rgb(126,126,228)" rx="2" ry="2" />
<text  x="1056.43" y="159.5" ></text>
</g>
<g >
<title>finish_task_switch (344 us, 0.02%)</title><rect x="1188.0" y="117" width="0.2" height="15.0" fill="rgb(129,129,215)" rx="2" ry="2" />
<text  x="1191.04" y="127.5" ></text>
</g>
<g >
<title>asm_sysvec_apic_timer_interrupt (165,351 us, 8.17%)</title><rect x="1070.8" y="213" width="96.4" height="15.0" fill="rgb(137,137,224)" rx="2" ry="2" />
<text  x="1073.80" y="223.5" >asm_sysvec_..</text>
</g>
<g >
<title>__prepare_exit_to_usermode (11,504 us, 0.57%)</title><rect x="1064.1" y="149" width="6.7" height="15.0" fill="rgb(135,135,210)" rx="2" ry="2" />
<text  x="1067.09" y="159.5" ></text>
</g>
<g >
<title>prepare_exit_to_usermode (218 us, 0.01%)</title><rect x="1063.8" y="149" width="0.1" height="15.0" fill="rgb(96,96,227)" rx="2" ry="2" />
<text  x="1066.75" y="159.5" ></text>
</g>
<g >
<title>idtentry_exit_cond_rcu (2,143 us, 0.11%)</title><rect x="35.8" y="213" width="1.3" height="15.0" fill="rgb(97,97,220)" rx="2" ry="2" />
<text  x="38.82" y="223.5" ></text>
</g>
<g >
<title>__prepare_exit_to_usermode (1,387 us, 0.07%)</title><rect x="37.1" y="181" width="0.8" height="15.0" fill="rgb(132,132,194)" rx="2" ry="2" />
<text  x="40.07" y="191.5" ></text>
</g>
<g >
<title>prepare_exit_to_usermode (421 us, 0.02%)</title><rect x="1063.5" y="149" width="0.3" height="15.0" fill="rgb(110,110,221)" rx="2" ry="2" />
<text  x="1066.51" y="159.5" ></text>
</g>
<g >
<title>sysvec_apic_timer_interrupt (344 us, 0.02%)</title><rect x="1188.0" y="197" width="0.2" height="15.0" fill="rgb(130,130,201)" rx="2" ry="2" />
<text  x="1191.04" y="207.5" ></text>
</g>
<g >
<title>- (205,319 us, 10.15%)</title><rect x="1064.1" y="229" width="119.7" height="15.0" fill="rgb(200,200,200)" rx="2" ry="2" />
<text  x="1067.09" y="239.5" >-</text>
</g>
<g >
<title>asm_common_interrupt (3,629 us, 0.18%)</title><rect x="1051.3" y="197" width="2.1" height="15.0" fill="rgb(86,86,199)" rx="2" ry="2" />
<text  x="1054.32" y="207.5" ></text>
</g>
<g >
<title>schedule (196 us, 0.01%)</title><rect x="1188.7" y="69" width="0.1" height="15.0" fill="rgb(137,137,241)" rx="2" ry="2" />
<text  x="1191.73" y="79.5" ></text>
</g>
<g >
<title>void std::__convert_to_v&lt;double&gt;(char const*, double&amp;, std::_Ios_Iostate&amp;, __locale_struct* const&amp;) (205 us, 0.01%)</title><rect x="1189.9" y="261" width="0.1" height="15.0" fill="rgb(136,136,196)" rx="2" ry="2" />
<text  x="1192.88" y="271.5" ></text>
</g>
<g >
<title>__prepare_exit_to_usermode (4,394 us, 0.22%)</title><rect x="10.4" y="181" width="2.5" height="15.0" fill="rgb(108,108,204)" rx="2" ry="2" />
<text  x="13.38" y="191.5" ></text>
</g>
<g >
<title>[Missed Kernel Stack] (644 us, 0.03%)</title><rect x="10.0" y="245" width="0.4" height="15.0" fill="rgb(100,100,192)" rx="2" ry="2" />
<text  x="13.00" y="255.5" ></text>
</g>
<g >
<title>GOMP_parallel (21,912 us, 1.08%)</title><rect x="1051.3" y="245" width="12.8" height="15.0" fill="rgb(105,105,214)" rx="2" ry="2" />
<text  x="1054.32" y="255.5" ></text>
</g>
<g >
<title>asm_sysvec_apic_timer_interrupt (262 us, 0.01%)</title><rect x="1188.8" y="133" width="0.2" height="15.0" fill="rgb(122,122,229)" rx="2" ry="2" />
<text  x="1191.84" y="143.5" ></text>
</g>
<g >
<title>- (196 us, 0.01%)</title><rect x="1188.7" y="165" width="0.1" height="15.0" fill="rgb(200,200,200)" rx="2" ry="2" />
<text  x="1191.73" y="175.5" ></text>
</g>
<g >
<title>asm_sysvec_apic_timer_interrupt (39,234 us, 1.94%)</title><rect x="12.9" y="245" width="22.9" height="15.0" fill="rgb(91,91,206)" rx="2" ry="2" />
<text  x="15.94" y="255.5" >a..</text>
</g>
<g >
<title>asm_sysvec_irq_work (2,143 us, 0.11%)</title><rect x="35.8" y="245" width="1.3" height="15.0" fill="rgb(125,125,211)" rx="2" ry="2" />
<text  x="38.82" y="255.5" ></text>
</g>
<g >
<title>all (2,023,647 us, 100%)</title><rect x="10.0" y="293" width="1180.0" height="15.0" fill="rgb(101,101,218)" rx="2" ry="2" />
<text  x="13.00" y="303.5" ></text>
</g>
<g >
<title>idtentry_exit_cond_rcu (344 us, 0.02%)</title><rect x="1188.0" y="181" width="0.2" height="15.0" fill="rgb(118,118,193)" rx="2" ry="2" />
<text  x="1191.04" y="191.5" ></text>
</g>
<g >
<title>__prepare_exit_to_usermode (253 us, 0.01%)</title><rect x="1188.4" y="165" width="0.2" height="15.0" fill="rgb(118,118,218)" rx="2" ry="2" />
<text  x="1191.44" y="175.5" ></text>
</g>
<g >
<title>asm_sysvec_apic_timer_interrupt (184 us, 0.01%)</title><rect x="1188.6" y="165" width="0.1" height="15.0" fill="rgb(105,105,216)" rx="2" ry="2" />
<text  x="1191.58" y="175.5" ></text>
</g>
<g >
<title>__prepare_exit_to_usermode (39,234 us, 1.94%)</title><rect x="12.9" y="181" width="22.9" height="15.0" fill="rgb(128,128,213)" rx="2" ry="2" />
<text  x="15.94" y="191.5" >_..</text>
</g>
<g >
<title>__prepare_exit_to_usermode (421 us, 0.02%)</title><rect x="1063.5" y="133" width="0.3" height="15.0" fill="rgb(103,103,224)" rx="2" ry="2" />
<text  x="1066.51" y="143.5" ></text>
</g>
<g >
<title>[unknown] (705 us, 0.03%)</title><rect x="1187.6" y="245" width="0.4" height="15.0" fill="rgb(104,104,191)" rx="2" ry="2" />
<text  x="1190.58" y="255.5" ></text>
</g>
<g >
<title>asm_sysvec_apic_timer_interrupt (574 us, 0.03%)</title><rect x="1187.6" y="213" width="0.3" height="15.0" fill="rgb(94,94,200)" rx="2" ry="2" />
<text  x="1190.58" y="223.5" ></text>
</g>
<g >
<title>finish_task_switch (165,351 us, 8.17%)</title><rect x="1070.8" y="117" width="96.4" height="15.0" fill="rgb(113,113,210)" rx="2" ry="2" />
<text  x="1073.80" y="127.5" >finish_task..</text>
</g>
<g >
<title>futex_wait_queue_me (1,736,972 us, 85.83%)</title><rect x="38.5" y="149" width="1012.8" height="15.0" fill="rgb(110,110,214)" rx="2" ry="2" />
<text  x="41.48" y="159.5" >futex_wait_queue_me</text>
</g>
<g >
<title>schedule (602 us, 0.03%)</title><rect x="1189.5" y="149" width="0.4" height="15.0" fill="rgb(85,85,190)" rx="2" ry="2" />
<text  x="1192.53" y="159.5" ></text>
</g>
<g >
<title>idtentry_exit_cond_rcu (218 us, 0.01%)</title><rect x="1063.8" y="165" width="0.1" height="15.0" fill="rgb(122,122,190)" rx="2" ry="2" />
<text  x="1066.75" y="175.5" ></text>
</g>
<g >
<title>__prepare_exit_to_usermode (371 us, 0.02%)</title><rect x="1189.2" y="69" width="0.2" height="15.0" fill="rgb(99,99,197)" rx="2" ry="2" />
<text  x="1192.18" y="79.5" ></text>
</g>
<g >
<title>idtentry_exit_cond_rcu (262 us, 0.01%)</title><rect x="1188.8" y="101" width="0.2" height="15.0" fill="rgb(80,80,215)" rx="2" ry="2" />
<text  x="1191.84" y="111.5" ></text>
</g>
<g >
<title>schedule (3,629 us, 0.18%)</title><rect x="1051.3" y="117" width="2.1" height="15.0" fill="rgb(88,88,212)" rx="2" ry="2" />
<text  x="1054.32" y="127.5" ></text>
</g>
<g >
<title>idtentry_exit_cond_rcu (20,735 us, 1.02%)</title><rect x="1171.7" y="181" width="12.1" height="15.0" fill="rgb(106,106,225)" rx="2" ry="2" />
<text  x="1174.73" y="191.5" ></text>
</g>
<g >
<title>__prepare_exit_to_usermode (1,032 us, 0.05%)</title><rect x="37.9" y="165" width="0.6" height="15.0" fill="rgb(106,106,190)" rx="2" ry="2" />
<text  x="40.88" y="175.5" ></text>
</g>
<g >
<title>sysvec_reschedule_ipi (218 us, 0.01%)</title><rect x="1063.8" y="181" width="0.1" height="15.0" fill="rgb(103,103,218)" rx="2" ry="2" />
<text  x="1066.75" y="191.5" ></text>
</g>
<g >
<title>__prepare_exit_to_usermode (20,735 us, 1.02%)</title><rect x="1171.7" y="149" width="12.1" height="15.0" fill="rgb(122,122,220)" rx="2" ry="2" />
<text  x="1174.73" y="159.5" ></text>
</g>
<g >
<title>sysvec_apic_timer_interrupt (253 us, 0.01%)</title><rect x="1188.4" y="213" width="0.2" height="15.0" fill="rgb(104,104,225)" rx="2" ry="2" />
<text  x="1191.44" y="223.5" ></text>
</g>
<g >
<title>finish_task_switch (574 us, 0.03%)</title><rect x="1187.6" y="117" width="0.3" height="15.0" fill="rgb(93,93,198)" rx="2" ry="2" />
<text  x="1190.58" y="127.5" ></text>
</g>
<g >
<title>idtentry_exit_cond_rcu (7,729 us, 0.38%)</title><rect x="1167.2" y="181" width="4.5" height="15.0" fill="rgb(99,99,202)" rx="2" ry="2" />
<text  x="1170.22" y="191.5" ></text>
</g>
<g >
<title>finish_task_switch (1,387 us, 0.07%)</title><rect x="37.1" y="149" width="0.8" height="15.0" fill="rgb(131,131,218)" rx="2" ry="2" />
<text  x="40.07" y="159.5" ></text>
</g>
<g >
<title>sysvec_apic_timer_interrupt (39,234 us, 1.94%)</title><rect x="12.9" y="229" width="22.9" height="15.0" fill="rgb(139,139,209)" rx="2" ry="2" />
<text  x="15.94" y="239.5" >s..</text>
</g>
<g >
<title>finish_task_switch (184 us, 0.01%)</title><rect x="1188.6" y="69" width="0.1" height="15.0" fill="rgb(126,126,217)" rx="2" ry="2" />
<text  x="1191.58" y="79.5" ></text>
</g>
<g >
<title>std::num_get&lt;char, std::istreambuf_iterator&lt;char, std::char_traits&lt;char&gt; &gt; &gt;::do_get(std::istreambuf_iterator&lt;char, std::char_traits&lt;char&gt; &gt;, std::istreambuf_iterator&lt;char, std::char_traits&lt;char&gt; &gt;, std::ios_base&amp;, std::_Ios_Iostate&amp;, double&amp;) const (371 us, 0.02%)</title><rect x="1189.2" y="165" width="0.2" height="15.0" fill="rgb(105,105,233)" rx="2" ry="2" />
<text  x="1192.18" y="175.5" ></text>
</g>
<g >
<title>main (1,609 us, 0.08%)</title><rect x="1188.6" y="245" width="0.9" height="15.0" fill="rgb(121,121,199)" rx="2" ry="2" />
<text  x="1191.58" y="255.5" ></text>
</g>
<g >
<title>common_interrupt (11,504 us, 0.57%)</title><rect x="1064.1" y="197" width="6.7" height="15.0" fill="rgb(134,134,236)" rx="2" ry="2" />
<text  x="1067.09" y="207.5" ></text>
</g>
<g >
<title>asm_sysvec_apic_timer_interrupt (253 us, 0.01%)</title><rect x="1188.4" y="229" width="0.2" height="15.0" fill="rgb(92,92,215)" rx="2" ry="2" />
<text  x="1191.44" y="239.5" ></text>
</g>
<g >
<title>idtentry_exit_cond_rcu (3,629 us, 0.18%)</title><rect x="1051.3" y="165" width="2.1" height="15.0" fill="rgb(117,117,214)" rx="2" ry="2" />
<text  x="1054.32" y="175.5" ></text>
</g>
<g >
<title>entry_SYSCALL_64_after_hwframe (1,736,972 us, 85.83%)</title><rect x="38.5" y="229" width="1012.8" height="15.0" fill="rgb(109,109,239)" rx="2" ry="2" />
<text  x="41.48" y="239.5" >entry_SYSCALL_64_after_hwframe</text>
</g>
<g >
<title>finish_task_switch (20,735 us, 1.02%)</title><rect x="1171.7" y="117" width="12.1" height="15.0" fill="rgb(83,83,206)" rx="2" ry="2" />
<text  x="1174.73" y="127.5" ></text>
</g>
<g >
<title>asm_common_interrupt (11,504 us, 0.57%)</title><rect x="1064.1" y="213" width="6.7" height="15.0" fill="rgb(119,119,211)" rx="2" ry="2" />
<text  x="1067.09" y="223.5" ></text>
</g>
<g >
<title>idtentry_exit_cond_rcu (602 us, 0.03%)</title><rect x="1189.5" y="197" width="0.4" height="15.0" fill="rgb(116,116,207)" rx="2" ry="2" />
<text  x="1192.53" y="207.5" ></text>
</g>
<g >
<title>asm_sysvec_apic_timer_interrupt (17,279 us, 0.85%)</title><rect x="1053.4" y="197" width="10.1" height="15.0" fill="rgb(119,119,192)" rx="2" ry="2" />
<text  x="1056.43" y="207.5" ></text>
</g>
<g >
<title>finish_task_switch (4,394 us, 0.22%)</title><rect x="10.4" y="149" width="2.5" height="15.0" fill="rgb(119,119,222)" rx="2" ry="2" />
<text  x="13.38" y="159.5" ></text>
</g>
<g >
<title>schedule (184 us, 0.01%)</title><rect x="1188.6" y="85" width="0.1" height="15.0" fill="rgb(108,108,235)" rx="2" ry="2" />
<text  x="1191.58" y="95.5" ></text>
</g>
<g >
<title>schedule (1,387 us, 0.07%)</title><rect x="37.1" y="165" width="0.8" height="15.0" fill="rgb(126,126,235)" rx="2" ry="2" />
<text  x="40.07" y="175.5" ></text>
</g>
<g >
<title>idtentry_exit_cond_rcu (17,279 us, 0.85%)</title><rect x="1053.4" y="165" width="10.1" height="15.0" fill="rgb(126,126,215)" rx="2" ry="2" />
<text  x="1056.43" y="175.5" ></text>
</g>
<g >
<title>schedule (39,234 us, 1.94%)</title><rect x="12.9" y="165" width="22.9" height="15.0" fill="rgb(115,115,208)" rx="2" ry="2" />
<text  x="15.94" y="175.5" >s..</text>
</g>
<g >
<title>std::num_get&lt;char, std::istreambuf_iterator&lt;char, std::char_traits&lt;char&gt; &gt; &gt;::_M_extract_float(std::istreambuf_iterator&lt;char, std::char_traits&lt;char&gt; &gt;, std::istreambuf_iterator&lt;char, std::char_traits&lt;char&gt; &gt;, std::ios_base&amp;, std::_Ios_Iostate&amp;, std::string&amp;) const (602 us, 0.03%)</title><rect x="1189.5" y="261" width="0.4" height="15.0" fill="rgb(81,81,194)" rx="2" ry="2" />
<text  x="1192.53" y="271.5" ></text>
</g>
<g >
<title>finish_task_switch (2,143 us, 0.11%)</title><rect x="35.8" y="149" width="1.3" height="15.0" fill="rgb(130,130,212)" rx="2" ry="2" />
<text  x="38.82" y="159.5" ></text>
</g>
<g >
<title>idtentry_exit_cond_rcu (253 us, 0.01%)</title><rect x="1188.4" y="197" width="0.2" height="15.0" fill="rgb(100,100,224)" rx="2" ry="2" />
<text  x="1191.44" y="207.5" ></text>
</g>
<g >
<title>prepare_exit_to_usermode (20,735 us, 1.02%)</title><rect x="1171.7" y="165" width="12.1" height="15.0" fill="rgb(112,112,241)" rx="2" ry="2" />
<text  x="1174.73" y="175.5" ></text>
</g>
<g >
<title>sysvec_apic_timer_interrupt (184 us, 0.01%)</title><rect x="1188.6" y="149" width="0.1" height="15.0" fill="rgb(83,83,193)" rx="2" ry="2" />
<text  x="1191.58" y="159.5" ></text>
</g>
<g >
<title>__prepare_exit_to_usermode (2,143 us, 0.11%)</title><rect x="35.8" y="181" width="1.3" height="15.0" fill="rgb(107,107,193)" rx="2" ry="2" />
<text  x="38.82" y="191.5" ></text>
</g>
<g >
<title>prepare_exit_to_usermode (39,234 us, 1.94%)</title><rect x="12.9" y="197" width="22.9" height="15.0" fill="rgb(126,126,210)" rx="2" ry="2" />
<text  x="15.94" y="207.5" >p..</text>
</g>
<g >
<title>finish_task_switch (602 us, 0.03%)</title><rect x="1189.5" y="133" width="0.4" height="15.0" fill="rgb(131,131,207)" rx="2" ry="2" />
<text  x="1192.53" y="143.5" ></text>
</g>
<g >
<title>[Missed User Stack] (47,808 us, 2.36%)</title><rect x="10.0" y="261" width="27.9" height="15.0" fill="rgb(86,86,203)" rx="2" ry="2" />
<text  x="13.00" y="271.5" >[..</text>
</g>
<g >
<title>sysvec_reschedule_ipi (20,735 us, 1.02%)</title><rect x="1171.7" y="197" width="12.1" height="15.0" fill="rgb(91,91,237)" rx="2" ry="2" />
<text  x="1174.73" y="207.5" ></text>
</g>
<g >
<title>prepare_exit_to_usermode (2,143 us, 0.11%)</title><rect x="35.8" y="197" width="1.3" height="15.0" fill="rgb(82,82,216)" rx="2" ry="2" />
<text  x="38.82" y="207.5" ></text>
</g>
<g >
<title>__libc_start_main (1,609 us, 0.08%)</title><rect x="1188.6" y="261" width="0.9" height="15.0" fill="rgb(122,122,221)" rx="2" ry="2" />
<text  x="1191.58" y="271.5" ></text>
</g>
<g >
<title>schedule (344 us, 0.02%)</title><rect x="1188.0" y="133" width="0.2" height="15.0" fill="rgb(87,87,217)" rx="2" ry="2" />
<text  x="1191.04" y="143.5" ></text>
</g>
<g >
<title>- (344 us, 0.02%)</title><rect x="1188.0" y="229" width="0.2" height="15.0" fill="rgb(200,200,200)" rx="2" ry="2" />
<text  x="1191.04" y="239.5" ></text>
</g>
<g >
<title>futex_wait (1,736,972 us, 85.83%)</title><rect x="38.5" y="165" width="1012.8" height="15.0" fill="rgb(85,85,220)" rx="2" ry="2" />
<text  x="41.48" y="175.5" >futex_wait</text>
</g>
<g >
<title>finish_task_switch (1,736,972 us, 85.83%)</title><rect x="38.5" y="117" width="1012.8" height="15.0" fill="rgb(85,85,220)" rx="2" ry="2" />
<text  x="41.48" y="127.5" >finish_task_switch</text>
</g>
<g >
<title>asm_sysvec_irq_work (7,729 us, 0.38%)</title><rect x="1167.2" y="213" width="4.5" height="15.0" fill="rgb(80,80,203)" rx="2" ry="2" />
<text  x="1170.22" y="223.5" ></text>
</g>
<g >
<title>finish_task_switch (1,032 us, 0.05%)</title><rect x="37.9" y="133" width="0.6" height="15.0" fill="rgb(136,136,204)" rx="2" ry="2" />
<text  x="40.88" y="143.5" ></text>
</g>
<g >
<title>sysvec_apic_timer_interrupt (602 us, 0.03%)</title><rect x="1189.5" y="213" width="0.4" height="15.0" fill="rgb(111,111,216)" rx="2" ry="2" />
<text  x="1192.53" y="223.5" ></text>
</g>
<g >
<title>[Missed Kernel Stack] (6,454 us, 0.32%)</title><rect x="1183.8" y="229" width="3.8" height="15.0" fill="rgb(86,86,192)" rx="2" ry="2" />
<text  x="1186.82" y="239.5" ></text>
</g>
<g >
<title>idtentry_exit_cond_rcu (574 us, 0.03%)</title><rect x="1187.6" y="181" width="0.3" height="15.0" fill="rgb(133,133,227)" rx="2" ry="2" />
<text  x="1190.58" y="191.5" ></text>
</g>
<g >
<title>schedule (421 us, 0.02%)</title><rect x="1063.5" y="117" width="0.3" height="15.0" fill="rgb(135,135,239)" rx="2" ry="2" />
<text  x="1066.51" y="127.5" ></text>
</g>
<g >
<title>prepare_exit_to_usermode (574 us, 0.03%)</title><rect x="1187.6" y="165" width="0.3" height="15.0" fill="rgb(118,118,197)" rx="2" ry="2" />
<text  x="1190.58" y="175.5" ></text>
</g>
<g >
<title>schedule (371 us, 0.02%)</title><rect x="1189.2" y="53" width="0.2" height="15.0" fill="rgb(93,93,190)" rx="2" ry="2" />
<text  x="1192.18" y="63.5" ></text>
</g>
<g >
<title>prepare_exit_to_usermode (165,351 us, 8.17%)</title><rect x="1070.8" y="165" width="96.4" height="15.0" fill="rgb(105,105,206)" rx="2" ry="2" />
<text  x="1073.80" y="175.5" >prepare_exi..</text>
</g>
<g >
<title>finish_task_switch (7,729 us, 0.38%)</title><rect x="1167.2" y="117" width="4.5" height="15.0" fill="rgb(97,97,242)" rx="2" ry="2" />
<text  x="1170.22" y="127.5" ></text>
</g>
<g >
<title>idtentry_exit_cond_rcu (184 us, 0.01%)</title><rect x="1188.6" y="133" width="0.1" height="15.0" fill="rgb(83,83,221)" rx="2" ry="2" />
<text  x="1191.58" y="143.5" ></text>
</g>
<g >
<title>asm_sysvec_apic_timer_interrupt (602 us, 0.03%)</title><rect x="1189.5" y="229" width="0.4" height="15.0" fill="rgb(111,111,198)" rx="2" ry="2" />
<text  x="1192.53" y="239.5" ></text>
</g>
<g >
<title>sysvec_reschedule_ipi (1,387 us, 0.07%)</title><rect x="37.1" y="229" width="0.8" height="15.0" fill="rgb(91,91,240)" rx="2" ry="2" />
<text  x="40.07" y="239.5" ></text>
</g>
<g >
<title>prepare_exit_to_usermode (1,032 us, 0.05%)</title><rect x="37.9" y="181" width="0.6" height="15.0" fill="rgb(137,137,206)" rx="2" ry="2" />
<text  x="40.88" y="191.5" ></text>
</g>
<g >
<title>common_interrupt (3,629 us, 0.18%)</title><rect x="1051.3" y="181" width="2.1" height="15.0" fill="rgb(110,110,221)" rx="2" ry="2" />
<text  x="1054.32" y="191.5" ></text>
</g>
<g >
<title>asm_sysvec_apic_timer_interrupt (371 us, 0.02%)</title><rect x="1189.2" y="133" width="0.2" height="15.0" fill="rgb(139,139,190)" rx="2" ry="2" />
<text  x="1192.18" y="143.5" ></text>
</g>
<g >
<title>ReadLine(std::__cxx11::basic_string&lt;char, std::char_traits&lt;char&gt;, std::allocator&lt;char&gt; &gt;&amp;, double*, int) (1,579 us, 0.08%)</title><rect x="1188.6" y="197" width="0.9" height="15.0" fill="rgb(139,139,200)" rx="2" ry="2" />
<text  x="1191.58" y="207.5" ></text>
</g>
<g >
<title>prepare_exit_to_usermode (7,729 us, 0.38%)</title><rect x="1167.2" y="165" width="4.5" height="15.0" fill="rgb(96,96,218)" rx="2" ry="2" />
<text  x="1170.22" y="175.5" ></text>
</g>
<g >
<title>asm_common_interrupt (4,394 us, 0.22%)</title><rect x="10.4" y="245" width="2.5" height="15.0" fill="rgb(108,108,231)" rx="2" ry="2" />
<text  x="13.38" y="255.5" ></text>
</g>
<g >
<title>schedule (4,394 us, 0.22%)</title><rect x="10.4" y="165" width="2.5" height="15.0" fill="rgb(88,88,203)" rx="2" ry="2" />
<text  x="13.38" y="175.5" ></text>
</g>
<g >
<title>std::istream&amp; std::istream::_M_extract&lt;double&gt;(double&amp;) (1,242 us, 0.06%)</title><rect x="1188.7" y="181" width="0.8" height="15.0" fill="rgb(127,127,203)" rx="2" ry="2" />
<text  x="1191.73" y="191.5" ></text>
</g>
<g >
<title>Hybrid::ForwardElimination(int, int, int) [clone ._omp_fn.1] (21,857 us, 1.08%)</title><rect x="1051.3" y="229" width="12.8" height="15.0" fill="rgb(104,104,217)" rx="2" ry="2" />
<text  x="1054.32" y="239.5" ></text>
</g>
<g >
<title>__prepare_exit_to_usermode (184 us, 0.01%)</title><rect x="1188.6" y="101" width="0.1" height="15.0" fill="rgb(93,93,234)" rx="2" ry="2" />
<text  x="1191.58" y="111.5" ></text>
</g>
<g >
<title>finish_task_switch (17,279 us, 0.85%)</title><rect x="1053.4" y="101" width="10.1" height="15.0" fill="rgb(100,100,216)" rx="2" ry="2" />
<text  x="1056.43" y="111.5" ></text>
</g>
<g >
<title>schedule (2,143 us, 0.11%)</title><rect x="35.8" y="165" width="1.3" height="15.0" fill="rgb(130,130,229)" rx="2" ry="2" />
<text  x="38.82" y="175.5" ></text>
</g>
<g >
<title>schedule (7,729 us, 0.38%)</title><rect x="1167.2" y="133" width="4.5" height="15.0" fill="rgb(109,109,218)" rx="2" ry="2" />
<text  x="1170.22" y="143.5" ></text>
</g>
<g >
<title>- (21,547 us, 1.06%)</title><rect x="1051.3" y="213" width="12.6" height="15.0" fill="rgb(200,200,200)" rx="2" ry="2" />
<text  x="1054.32" y="223.5" ></text>
</g>
<g >
<title>prepare_exit_to_usermode (253 us, 0.01%)</title><rect x="1188.4" y="181" width="0.2" height="15.0" fill="rgb(97,97,219)" rx="2" ry="2" />
<text  x="1191.44" y="191.5" ></text>
</g>
<g >
<title>prepare_exit_to_usermode (344 us, 0.02%)</title><rect x="1188.0" y="165" width="0.2" height="15.0" fill="rgb(81,81,232)" rx="2" ry="2" />
<text  x="1191.04" y="175.5" ></text>
</g>
<g >
<title>schedule (253 us, 0.01%)</title><rect x="1188.4" y="149" width="0.2" height="15.0" fill="rgb(87,87,228)" rx="2" ry="2" />
<text  x="1191.44" y="159.5" ></text>
</g>
<g >
<title>sysvec_apic_timer_interrupt (262 us, 0.01%)</title><rect x="1188.8" y="117" width="0.2" height="15.0" fill="rgb(117,117,214)" rx="2" ry="2" />
<text  x="1191.84" y="127.5" ></text>
</g>
<g >
<title>Hybrid::ForwardElimination(int, int, int) [clone ._omp_fn.1] (211,773 us, 10.46%)</title><rect x="1064.1" y="245" width="123.5" height="15.0" fill="rgb(131,131,215)" rx="2" ry="2" />
<text  x="1067.09" y="255.5" >Hybrid::Forward..</text>
</g>
<g >
<title>do_futex (1,736,972 us, 85.83%)</title><rect x="38.5" y="181" width="1012.8" height="15.0" fill="rgb(88,88,222)" rx="2" ry="2" />
<text  x="41.48" y="191.5" >do_futex</text>
</g>
<g >
<title>finish_task_switch (3,629 us, 0.18%)</title><rect x="1051.3" y="101" width="2.1" height="15.0" fill="rgb(122,122,216)" rx="2" ry="2" />
<text  x="1054.32" y="111.5" ></text>
</g>
<g >
<title>sysvec_irq_work (2,143 us, 0.11%)</title><rect x="35.8" y="229" width="1.3" height="15.0" fill="rgb(113,113,224)" rx="2" ry="2" />
<text  x="38.82" y="239.5" ></text>
</g>
<g >
<title>do_syscall_64 (1,736,972 us, 85.83%)</title><rect x="38.5" y="213" width="1012.8" height="15.0" fill="rgb(100,100,197)" rx="2" ry="2" />
<text  x="41.48" y="223.5" >do_syscall_64</text>
</g>
<g >
<title>finish_task_switch (218 us, 0.01%)</title><rect x="1063.8" y="101" width="0.1" height="15.0" fill="rgb(110,110,221)" rx="2" ry="2" />
<text  x="1066.75" y="111.5" ></text>
</g>
<g >
<title>asm_sysvec_apic_timer_interrupt (196 us, 0.01%)</title><rect x="1188.7" y="149" width="0.1" height="15.0" fill="rgb(130,130,196)" rx="2" ry="2" />
<text  x="1191.73" y="159.5" ></text>
</g>
<g >
<title>- (253 us, 0.01%)</title><rect x="1188.4" y="245" width="0.2" height="15.0" fill="rgb(200,200,200)" rx="2" ry="2" />
<text  x="1191.44" y="255.5" ></text>
</g>
<g >
<title>finish_task_switch (262 us, 0.01%)</title><rect x="1188.8" y="37" width="0.2" height="15.0" fill="rgb(126,126,221)" rx="2" ry="2" />
<text  x="1191.84" y="47.5" ></text>
</g>
<g >
<title>sysvec_apic_timer_interrupt (165,351 us, 8.17%)</title><rect x="1070.8" y="197" width="96.4" height="15.0" fill="rgb(139,139,214)" rx="2" ry="2" />
<text  x="1073.80" y="207.5" >sysvec_apic..</text>
</g>
<g >
<title>finish_task_switch (196 us, 0.01%)</title><rect x="1188.7" y="53" width="0.1" height="15.0" fill="rgb(108,108,194)" rx="2" ry="2" />
<text  x="1191.73" y="63.5" ></text>
</g>
<g >
<title>std::istream::sentry::sentry(std::istream&amp;, bool) (344 us, 0.02%)</title><rect x="1188.0" y="245" width="0.2" height="15.0" fill="rgb(127,127,224)" rx="2" ry="2" />
<text  x="1191.04" y="255.5" ></text>
</g>
<g >
<title>Parallel::HybridSolve(int, char**, float&amp;, int&amp;) (1,609 us, 0.08%)</title><rect x="1188.6" y="229" width="0.9" height="15.0" fill="rgb(111,111,230)" rx="2" ry="2" />
<text  x="1191.58" y="239.5" ></text>
</g>
<g >
<title>prepare_exit_to_usermode (371 us, 0.02%)</title><rect x="1189.2" y="85" width="0.2" height="15.0" fill="rgb(82,82,225)" rx="2" ry="2" />
<text  x="1192.18" y="95.5" ></text>
</g>
<g >
<title>finish_task_switch (253 us, 0.01%)</title><rect x="1188.4" y="133" width="0.2" height="15.0" fill="rgb(105,105,241)" rx="2" ry="2" />
<text  x="1191.44" y="143.5" ></text>
</g>
<g >
<title>- (574 us, 0.03%)</title><rect x="1187.6" y="229" width="0.3" height="15.0" fill="rgb(200,200,200)" rx="2" ry="2" />
<text  x="1190.58" y="239.5" ></text>
</g>
<g >
<title>prepare_exit_to_usermode (602 us, 0.03%)</title><rect x="1189.5" y="181" width="0.4" height="15.0" fill="rgb(123,123,235)" rx="2" ry="2" />
<text  x="1192.53" y="191.5" ></text>
</g>
<g >
<title>[unknown] (1,973,159 us, 97.51%)</title><rect x="37.9" y="261" width="1150.5" height="15.0" fill="rgb(101,101,240)" rx="2" ry="2" />
<text  x="40.88" y="271.5" >[unknown]</text>
</g>
<g >
<title>asm_sysvec_reschedule_ipi (20,735 us, 1.02%)</title><rect x="1171.7" y="213" width="12.1" height="15.0" fill="rgb(91,91,232)" rx="2" ry="2" />
<text  x="1174.73" y="223.5" ></text>
</g>
<g >
<title>sysvec_irq_work (7,729 us, 0.38%)</title><rect x="1167.2" y="197" width="4.5" height="15.0" fill="rgb(124,124,243)" rx="2" ry="2" />
<text  x="1170.22" y="207.5" ></text>
</g>
<g >
<title>sysvec_apic_timer_interrupt (17,279 us, 0.85%)</title><rect x="1053.4" y="181" width="10.1" height="15.0" fill="rgb(92,92,211)" rx="2" ry="2" />
<text  x="1056.43" y="191.5" ></text>
</g>
<g >
<title>idtentry_exit_cond_rcu (11,504 us, 0.57%)</title><rect x="1064.1" y="181" width="6.7" height="15.0" fill="rgb(120,120,205)" rx="2" ry="2" />
<text  x="1067.09" y="191.5" ></text>
</g>
<g >
<title>asm_sysvec_reschedule_ipi (1,387 us, 0.07%)</title><rect x="37.1" y="245" width="0.8" height="15.0" fill="rgb(89,89,201)" rx="2" ry="2" />
<text  x="40.07" y="255.5" ></text>
</g>
<g >
<title>sysvec_irq_work (421 us, 0.02%)</title><rect x="1063.5" y="181" width="0.3" height="15.0" fill="rgb(91,91,211)" rx="2" ry="2" />
<text  x="1066.51" y="191.5" ></text>
</g>
<g >
<title>- (371 us, 0.02%)</title><rect x="1189.2" y="149" width="0.2" height="15.0" fill="rgb(200,200,200)" rx="2" ry="2" />
<text  x="1192.18" y="159.5" ></text>
</g>
<g >
<title>prepare_exit_to_usermode (262 us, 0.01%)</title><rect x="1188.8" y="85" width="0.2" height="15.0" fill="rgb(106,106,228)" rx="2" ry="2" />
<text  x="1191.84" y="95.5" ></text>
</g>
<g >
<title>schedule (1,736,972 us, 85.83%)</title><rect x="38.5" y="133" width="1012.8" height="15.0" fill="rgb(137,137,227)" rx="2" ry="2" />
<text  x="41.48" y="143.5" >schedule</text>
</g>
<g >
<title>- (262 us, 0.01%)</title><rect x="1188.8" y="149" width="0.2" height="15.0" fill="rgb(200,200,200)" rx="2" ry="2" />
<text  x="1191.84" y="159.5" ></text>
</g>
<g >
<title>asm_sysvec_apic_timer_interrupt (1,032 us, 0.05%)</title><rect x="37.9" y="229" width="0.6" height="15.0" fill="rgb(104,104,202)" rx="2" ry="2" />
<text  x="40.88" y="239.5" ></text>
</g>
<g >
<title>__prepare_exit_to_usermode (574 us, 0.03%)</title><rect x="1187.6" y="149" width="0.3" height="15.0" fill="rgb(113,113,229)" rx="2" ry="2" />
<text  x="1190.58" y="159.5" ></text>
</g>
<g >
<title>schedule (20,735 us, 1.02%)</title><rect x="1171.7" y="133" width="12.1" height="15.0" fill="rgb(83,83,219)" rx="2" ry="2" />
<text  x="1174.73" y="143.5" ></text>
</g>
<g >
<title>- (1,738,004 us, 85.88%)</title><rect x="37.9" y="245" width="1013.4" height="15.0" fill="rgb(200,200,200)" rx="2" ry="2" />
<text  x="40.88" y="255.5" >-</text>
</g>
<g >
<title>asm_sysvec_reschedule_ipi (218 us, 0.01%)</title><rect x="1063.8" y="197" width="0.1" height="15.0" fill="rgb(99,99,225)" rx="2" ry="2" />
<text  x="1066.75" y="207.5" ></text>
</g>
<g >
<title>schedule (262 us, 0.01%)</title><rect x="1188.8" y="53" width="0.2" height="15.0" fill="rgb(105,105,224)" rx="2" ry="2" />
<text  x="1191.84" y="63.5" ></text>
</g>
<g >
<title>idtentry_exit_cond_rcu (1,032 us, 0.05%)</title><rect x="37.9" y="197" width="0.6" height="15.0" fill="rgb(99,99,212)" rx="2" ry="2" />
<text  x="40.88" y="207.5" ></text>
</g>
<g >
<title>__prepare_exit_to_usermode (17,279 us, 0.85%)</title><rect x="1053.4" y="133" width="10.1" height="15.0" fill="rgb(93,93,213)" rx="2" ry="2" />
<text  x="1056.43" y="143.5" ></text>
</g>
<g >
<title>idtentry_exit_cond_rcu (371 us, 0.02%)</title><rect x="1189.2" y="101" width="0.2" height="15.0" fill="rgb(107,107,230)" rx="2" ry="2" />
<text  x="1192.18" y="111.5" ></text>
</g>
<g >
<title>finish_task_switch (39,234 us, 1.94%)</title><rect x="12.9" y="149" width="22.9" height="15.0" fill="rgb(111,111,209)" rx="2" ry="2" />
<text  x="15.94" y="159.5" >f..</text>
</g>
<g >
<title>__prepare_exit_to_usermode (262 us, 0.01%)</title><rect x="1188.8" y="69" width="0.2" height="15.0" fill="rgb(130,130,207)" rx="2" ry="2" />
<text  x="1191.84" y="79.5" ></text>
</g>
<g >
<title>prepare_exit_to_usermode (11,504 us, 0.57%)</title><rect x="1064.1" y="165" width="6.7" height="15.0" fill="rgb(111,111,211)" rx="2" ry="2" />
<text  x="1067.09" y="175.5" ></text>
</g>
<g >
<title>hybridge (2,023,647 us, 100.00%)</title><rect x="10.0" y="277" width="1180.0" height="15.0" fill="rgb(132,132,234)" rx="2" ry="2" />
<text  x="13.00" y="287.5" >hybridge</text>
</g>
<g >
<title>asm_sysvec_irq_work (421 us, 0.02%)</title><rect x="1063.5" y="197" width="0.3" height="15.0" fill="rgb(105,105,198)" rx="2" ry="2" />
<text  x="1066.51" y="207.5" ></text>
</g>
<g >
<title>asm_sysvec_apic_timer_interrupt (344 us, 0.02%)</title><rect x="1188.0" y="213" width="0.2" height="15.0" fill="rgb(113,113,235)" rx="2" ry="2" />
<text  x="1191.04" y="223.5" ></text>
</g>
<g >
<title>sysvec_apic_timer_interrupt (1,032 us, 0.05%)</title><rect x="37.9" y="213" width="0.6" height="15.0" fill="rgb(90,90,208)" rx="2" ry="2" />
<text  x="40.88" y="223.5" ></text>
</g>
<g >
<title>schedule (218 us, 0.01%)</title><rect x="1063.8" y="117" width="0.1" height="15.0" fill="rgb(103,103,192)" rx="2" ry="2" />
<text  x="1066.75" y="127.5" ></text>
</g>
<g >
<title>__prepare_exit_to_usermode (344 us, 0.02%)</title><rect x="1188.0" y="149" width="0.2" height="15.0" fill="rgb(106,106,242)" rx="2" ry="2" />
<text  x="1191.04" y="159.5" ></text>
</g>
<g >
<title>schedule (1,032 us, 0.05%)</title><rect x="37.9" y="149" width="0.6" height="15.0" fill="rgb(105,105,210)" rx="2" ry="2" />
<text  x="40.88" y="159.5" ></text>
</g>
<g >
<title>finish_task_switch (421 us, 0.02%)</title><rect x="1063.5" y="101" width="0.3" height="15.0" fill="rgb(138,138,198)" rx="2" ry="2" />
<text  x="1066.51" y="111.5" ></text>
</g>
<g >
<title>__prepare_exit_to_usermode (602 us, 0.03%)</title><rect x="1189.5" y="165" width="0.4" height="15.0" fill="rgb(124,124,238)" rx="2" ry="2" />
<text  x="1192.53" y="175.5" ></text>
</g>
<g >
<title>schedule (11,504 us, 0.57%)</title><rect x="1064.1" y="133" width="6.7" height="15.0" fill="rgb(95,95,211)" rx="2" ry="2" />
<text  x="1067.09" y="143.5" ></text>
</g>
<g >
<title>__prepare_exit_to_usermode (196 us, 0.01%)</title><rect x="1188.7" y="85" width="0.1" height="15.0" fill="rgb(93,93,231)" rx="2" ry="2" />
<text  x="1191.73" y="95.5" ></text>
</g>
<g >
<title>__prepare_exit_to_usermode (218 us, 0.01%)</title><rect x="1063.8" y="133" width="0.1" height="15.0" fill="rgb(117,117,228)" rx="2" ry="2" />
<text  x="1066.75" y="143.5" ></text>
</g>
<g >
<title>idtentry_exit_cond_rcu (4,394 us, 0.22%)</title><rect x="10.4" y="213" width="2.5" height="15.0" fill="rgb(87,87,218)" rx="2" ry="2" />
<text  x="13.38" y="223.5" ></text>
</g>
<g >
<title>finish_task_switch (371 us, 0.02%)</title><rect x="1189.2" y="37" width="0.2" height="15.0" fill="rgb(122,122,209)" rx="2" ry="2" />
<text  x="1192.18" y="47.5" ></text>
</g>
<g >
<title>sysvec_apic_timer_interrupt (371 us, 0.02%)</title><rect x="1189.2" y="117" width="0.2" height="15.0" fill="rgb(81,81,237)" rx="2" ry="2" />
<text  x="1192.18" y="127.5" ></text>
</g>
<g >
<title>[unknown] (262 us, 0.01%)</title><rect x="1188.8" y="165" width="0.2" height="15.0" fill="rgb(128,128,198)" rx="2" ry="2" />
<text  x="1191.84" y="175.5" ></text>
</g>
<g >
<title>common_interrupt (4,394 us, 0.22%)</title><rect x="10.4" y="229" width="2.5" height="15.0" fill="rgb(133,133,214)" rx="2" ry="2" />
<text  x="13.38" y="239.5" ></text>
</g>
<g >
<title>idtentry_exit_cond_rcu (165,351 us, 8.17%)</title><rect x="1070.8" y="181" width="96.4" height="15.0" fill="rgb(125,125,227)" rx="2" ry="2" />
<text  x="1073.80" y="191.5" >idtentry_ex..</text>
</g>
</g>
</svg>
