<?xml version="1.0" standalone="no"?>
<!DOCTYPE svg PUBLIC "-//W3C//DTD SVG 1.1//EN" "http://www.w3.org/Graphics/SVG/1.1/DTD/svg11.dtd">
<svg version="1.1" width="1200" height="294" onload="init(evt)" viewBox="0 0 1200 294" xmlns="http://www.w3.org/2000/svg" xmlns:xlink="http://www.w3.org/1999/xlink">
<!-- Flame graph stack visualization. See https://github.com/brendangregg/FlameGraph for latest version, and http://www.brendangregg.com/flamegraphs.html for examples. -->
<!-- NOTES:  -->
<defs>
	<linearGradient id="background" y1="0" y2="1" x1="0" x2="0" >
		<stop stop-color="#eeeeee" offset="5%" />
		<stop stop-color="#e0e0ff" offset="95%" />
	</linearGradient>
</defs>
<style type="text/css">
	text { font-family:Verdana; font-size:12px; fill:rgb(0,0,0); }
	#search, #ignorecase { opacity:0.1; cursor:pointer; }
	#search:hover, #search.show, #ignorecase:hover, #ignorecase.show { opacity:1; }
	#subtitle { text-anchor:middle; font-color:rgb(160,160,160); }
	#title { text-anchor:middle; font-size:17px}
	#unzoom { cursor:pointer; }
	#frames > *:hover { stroke:black; stroke-width:0.5; cursor:pointer; }
	.hide { display:none; }
	.parent { opacity:0.5; }
</style>
<script type="text/ecmascript">
<![CDATA[
	"use strict";
	var details, searchbtn, unzoombtn, matchedtxt, svg, searching, currentSearchTerm, ignorecase, ignorecaseBtn;
	function init(evt) {
		details = document.getElementById("details").firstChild;
		searchbtn = document.getElementById("search");
		ignorecaseBtn = document.getElementById("ignorecase");
		unzoombtn = document.getElementById("unzoom");
		matchedtxt = document.getElementById("matched");
		svg = document.getElementsByTagName("svg")[0];
		searching = 0;
		currentSearchTerm = null;
	}

	window.addEventListener("click", function(e) {
		var target = find_group(e.target);
		if (target) {
			if (target.nodeName == "a") {
				if (e.ctrlKey === false) return;
				e.preventDefault();
			}
			if (target.classList.contains("parent")) unzoom();
			zoom(target);
		}
		else if (e.target.id == "unzoom") unzoom();
		else if (e.target.id == "search") search_prompt();
		else if (e.target.id == "ignorecase") toggle_ignorecase();
	}, false)

	// mouse-over for info
	// show
	window.addEventListener("mouseover", function(e) {
		var target = find_group(e.target);
		if (target) details.nodeValue = "Function: " + g_to_text(target);
	}, false)

	// clear
	window.addEventListener("mouseout", function(e) {
		var target = find_group(e.target);
		if (target) details.nodeValue = ' ';
	}, false)

	// ctrl-F for search
	window.addEventListener("keydown",function (e) {
		if (e.keyCode === 114 || (e.ctrlKey && e.keyCode === 70)) {
			e.preventDefault();
			search_prompt();
		}
	}, false)

	// ctrl-I to toggle case-sensitive search
	window.addEventListener("keydown",function (e) {
		if (e.ctrlKey && e.keyCode === 73) {
			e.preventDefault();
			toggle_ignorecase();
		}
	}, false)

	// functions
	function find_child(node, selector) {
		var children = node.querySelectorAll(selector);
		if (children.length) return children[0];
		return;
	}
	function find_group(node) {
		var parent = node.parentElement;
		if (!parent) return;
		if (parent.id == "frames") return node;
		return find_group(parent);
	}
	function orig_save(e, attr, val) {
		if (e.attributes["_orig_" + attr] != undefined) return;
		if (e.attributes[attr] == undefined) return;
		if (val == undefined) val = e.attributes[attr].value;
		e.setAttribute("_orig_" + attr, val);
	}
	function orig_load(e, attr) {
		if (e.attributes["_orig_"+attr] == undefined) return;
		e.attributes[attr].value = e.attributes["_orig_" + attr].value;
		e.removeAttribute("_orig_"+attr);
	}
	function g_to_text(e) {
		var text = find_child(e, "title").firstChild.nodeValue;
		return (text)
	}
	function g_to_func(e) {
		var func = g_to_text(e);
		// if there's any manipulation we want to do to the function
		// name before it's searched, do it here before returning.
		return (func);
	}
	function update_text(e) {
		var r = find_child(e, "rect");
		var t = find_child(e, "text");
		var w = parseFloat(r.attributes.width.value) -3;
		var txt = find_child(e, "title").textContent.replace(/\([^(]*\)$/,"");
		t.attributes.x.value = parseFloat(r.attributes.x.value) + 3;

		// Smaller than this size won't fit anything
		if (w < 2 * 12 * 0.59) {
			t.textContent = "";
			return;
		}

		t.textContent = txt;
		// Fit in full text width
		if (/^ *$/.test(txt) || t.getSubStringLength(0, txt.length) < w)
			return;

		for (var x = txt.length - 2; x > 0; x--) {
			if (t.getSubStringLength(0, x + 2) <= w) {
				t.textContent = txt.substring(0, x) + "..";
				return;
			}
		}
		t.textContent = "";
	}

	// zoom
	function zoom_reset(e) {
		if (e.attributes != undefined) {
			orig_load(e, "x");
			orig_load(e, "width");
		}
		if (e.childNodes == undefined) return;
		for (var i = 0, c = e.childNodes; i < c.length; i++) {
			zoom_reset(c[i]);
		}
	}
	function zoom_child(e, x, ratio) {
		if (e.attributes != undefined) {
			if (e.attributes.x != undefined) {
				orig_save(e, "x");
				e.attributes.x.value = (parseFloat(e.attributes.x.value) - x - 10) * ratio + 10;
				if (e.tagName == "text")
					e.attributes.x.value = find_child(e.parentNode, "rect[x]").attributes.x.value + 3;
			}
			if (e.attributes.width != undefined) {
				orig_save(e, "width");
				e.attributes.width.value = parseFloat(e.attributes.width.value) * ratio;
			}
		}

		if (e.childNodes == undefined) return;
		for (var i = 0, c = e.childNodes; i < c.length; i++) {
			zoom_child(c[i], x - 10, ratio);
		}
	}
	function zoom_parent(e) {
		if (e.attributes) {
			if (e.attributes.x != undefined) {
				orig_save(e, "x");
				e.attributes.x.value = 10;
			}
			if (e.attributes.width != undefined) {
				orig_save(e, "width");
				e.attributes.width.value = parseInt(svg.width.baseVal.value) - (10 * 2);
			}
		}
		if (e.childNodes == undefined) return;
		for (var i = 0, c = e.childNodes; i < c.length; i++) {
			zoom_parent(c[i]);
		}
	}
	function zoom(node) {
		var attr = find_child(node, "rect").attributes;
		var width = parseFloat(attr.width.value);
		var xmin = parseFloat(attr.x.value);
		var xmax = parseFloat(xmin + width);
		var ymin = parseFloat(attr.y.value);
		var ratio = (svg.width.baseVal.value - 2 * 10) / width;

		// XXX: Workaround for JavaScript float issues (fix me)
		var fudge = 0.0001;

		unzoombtn.classList.remove("hide");

		var el = document.getElementById("frames").children;
		for (var i = 0; i < el.length; i++) {
			var e = el[i];
			var a = find_child(e, "rect").attributes;
			var ex = parseFloat(a.x.value);
			var ew = parseFloat(a.width.value);
			var upstack;
			// Is it an ancestor
			if (0 == 0) {
				upstack = parseFloat(a.y.value) > ymin;
			} else {
				upstack = parseFloat(a.y.value) < ymin;
			}
			if (upstack) {
				// Direct ancestor
				if (ex <= xmin && (ex+ew+fudge) >= xmax) {
					e.classList.add("parent");
					zoom_parent(e);
					update_text(e);
				}
				// not in current path
				else
					e.classList.add("hide");
			}
			// Children maybe
			else {
				// no common path
				if (ex < xmin || ex + fudge >= xmax) {
					e.classList.add("hide");
				}
				else {
					zoom_child(e, xmin, ratio);
					update_text(e);
				}
			}
		}
		search();
	}
	function unzoom() {
		unzoombtn.classList.add("hide");
		var el = document.getElementById("frames").children;
		for(var i = 0; i < el.length; i++) {
			el[i].classList.remove("parent");
			el[i].classList.remove("hide");
			zoom_reset(el[i]);
			update_text(el[i]);
		}
		search();
	}

	// search
	function toggle_ignorecase() {
		ignorecase = !ignorecase;
		if (ignorecase) {
			ignorecaseBtn.classList.add("show");
		} else {
			ignorecaseBtn.classList.remove("show");
		}
		reset_search();
		search();
	}
	function reset_search() {
		var el = document.querySelectorAll("#frames rect");
		for (var i = 0; i < el.length; i++) {
			orig_load(el[i], "fill")
		}
	}
	function search_prompt() {
		if (!searching) {
			var term = prompt("Enter a search term (regexp " +
			    "allowed, eg: ^ext4_)"
			    + (ignorecase ? ", ignoring case" : "")
			    + "\nPress Ctrl-i to toggle case sensitivity", "");
			if (term != null) {
				currentSearchTerm = term;
				search();
			}
		} else {
			reset_search();
			searching = 0;
			currentSearchTerm = null;
			searchbtn.classList.remove("show");
			searchbtn.firstChild.nodeValue = "Search"
			matchedtxt.classList.add("hide");
			matchedtxt.firstChild.nodeValue = ""
		}
	}
	function search(term) {
		if (currentSearchTerm === null) return;
		var term = currentSearchTerm;

		var re = new RegExp(term, ignorecase ? 'i' : '');
		var el = document.getElementById("frames").children;
		var matches = new Object();
		var maxwidth = 0;
		for (var i = 0; i < el.length; i++) {
			var e = el[i];
			var func = g_to_func(e);
			var rect = find_child(e, "rect");
			if (func == null || rect == null)
				continue;

			// Save max width. Only works as we have a root frame
			var w = parseFloat(rect.attributes.width.value);
			if (w > maxwidth)
				maxwidth = w;

			if (func.match(re)) {
				// highlight
				var x = parseFloat(rect.attributes.x.value);
				orig_save(rect, "fill");
				rect.attributes.fill.value = "rgb(230,0,230)";

				// remember matches
				if (matches[x] == undefined) {
					matches[x] = w;
				} else {
					if (w > matches[x]) {
						// overwrite with parent
						matches[x] = w;
					}
				}
				searching = 1;
			}
		}
		if (!searching)
			return;

		searchbtn.classList.add("show");
		searchbtn.firstChild.nodeValue = "Reset Search";

		// calculate percent matched, excluding vertical overlap
		var count = 0;
		var lastx = -1;
		var lastw = 0;
		var keys = Array();
		for (k in matches) {
			if (matches.hasOwnProperty(k))
				keys.push(k);
		}
		// sort the matched frames by their x location
		// ascending, then width descending
		keys.sort(function(a, b){
			return a - b;
		});
		// Step through frames saving only the biggest bottom-up frames
		// thanks to the sort order. This relies on the tree property
		// where children are always smaller than their parents.
		var fudge = 0.0001;	// JavaScript floating point
		for (var k in keys) {
			var x = parseFloat(keys[k]);
			var w = matches[keys[k]];
			if (x >= lastx + lastw - fudge) {
				count += w;
				lastx = x;
				lastw = w;
			}
		}
		// display matched percent
		matchedtxt.classList.remove("hide");
		var pct = 100 * count / maxwidth;
		if (pct != 100) pct = pct.toFixed(1)
		matchedtxt.firstChild.nodeValue = "Matched: " + pct + "%";
	}
]]>
</script>
<rect x="0.0" y="0" width="1200.0" height="294.0" fill="url(#background)"  />
<text id="title" x="600.00" y="24" >Off-CPU Time Flame Graph (30s): $ ./ompge ./ge_data/size8192x8192</text>
<text id="details" x="10.00" y="277" > </text>
<text id="unzoom" x="10.00" y="24" class="hide">Reset Zoom</text>
<text id="search" x="1090.00" y="24" >Search</text>
<text id="ignorecase" x="1174.00" y="24" >ic</text>
<text id="matched" x="1090.00" y="277" > </text>
<g id="frames">
<g >
<title>OMP::ForwardElimination(double*, double*, int, int) [clone ._omp_fn.0] (156,578,131 us, 39.06%)</title><rect x="710.2" y="197" width="460.9" height="15.0" fill="rgb(108,108,238)" rx="2" ry="2" />
<text  x="713.18" y="207.5" >OMP::ForwardElimination(double*, double*, int, int) [clone ._om..</text>
</g>
<g >
<title>- (1,621,797 us, 0.40%)</title><rect x="691.9" y="165" width="4.8" height="15.0" fill="rgb(200,200,200)" rx="2" ry="2" />
<text  x="694.88" y="175.5" ></text>
</g>
<g >
<title>entry_SYSCALL_64_after_hwframe (3,516,332 us, 0.88%)</title><rect x="696.7" y="149" width="10.4" height="15.0" fill="rgb(130,130,192)" rx="2" ry="2" />
<text  x="699.70" y="159.5" ></text>
</g>
<g >
<title>asm_sysvec_reschedule_ipi (104,449 us, 0.03%)</title><rect x="391.0" y="181" width="0.3" height="15.0" fill="rgb(95,95,199)" rx="2" ry="2" />
<text  x="394.02" y="191.5" ></text>
</g>
<g >
<title>asm_sysvec_irq_work (45,585 us, 0.01%)</title><rect x="696.3" y="149" width="0.1" height="15.0" fill="rgb(110,110,233)" rx="2" ry="2" />
<text  x="699.28" y="159.5" ></text>
</g>
<g >
<title>sysvec_reschedule_ipi (104,449 us, 0.03%)</title><rect x="391.0" y="165" width="0.3" height="15.0" fill="rgb(135,135,233)" rx="2" ry="2" />
<text  x="394.02" y="175.5" ></text>
</g>
<g >
<title>asm_sysvec_reschedule_ipi (79,336 us, 0.02%)</title><rect x="696.4" y="149" width="0.3" height="15.0" fill="rgb(91,91,235)" rx="2" ry="2" />
<text  x="699.42" y="159.5" ></text>
</g>
<g >
<title>GOMP_parallel (6,217,564 us, 1.55%)</title><rect x="691.9" y="197" width="18.3" height="15.0" fill="rgb(107,107,228)" rx="2" ry="2" />
<text  x="694.88" y="207.5" ></text>
</g>
<g >
<title>[Missed Kernel Stack] (36,302 us, 0.01%)</title><rect x="1189.9" y="181" width="0.1" height="15.0" fill="rgb(123,123,230)" rx="2" ry="2" />
<text  x="1192.89" y="191.5" ></text>
</g>
<g >
<title>__prepare_exit_to_usermode (79,336 us, 0.02%)</title><rect x="696.4" y="85" width="0.3" height="15.0" fill="rgb(119,119,206)" rx="2" ry="2" />
<text  x="699.42" y="95.5" ></text>
</g>
<g >
<title>__prepare_exit_to_usermode (439,278 us, 0.11%)</title><rect x="28.5" y="133" width="1.3" height="15.0" fill="rgb(103,103,213)" rx="2" ry="2" />
<text  x="31.49" y="143.5" ></text>
</g>
<g >
<title>schedule (104,449 us, 0.03%)</title><rect x="391.0" y="101" width="0.3" height="15.0" fill="rgb(137,137,234)" rx="2" ry="2" />
<text  x="394.02" y="111.5" ></text>
</g>
<g >
<title>finish_task_switch (6,152,279 us, 1.53%)</title><rect x="1134.4" y="69" width="18.1" height="15.0" fill="rgb(109,109,239)" rx="2" ry="2" />
<text  x="1137.37" y="79.5" ></text>
</g>
<g >
<title>finish_task_switch (102,091,630 us, 25.47%)</title><rect x="391.3" y="69" width="300.6" height="15.0" fill="rgb(96,96,240)" rx="2" ry="2" />
<text  x="394.33" y="79.5" >finish_task_switch</text>
</g>
<g >
<title>asm_sysvec_irq_work (6,152,279 us, 1.53%)</title><rect x="1134.4" y="165" width="18.1" height="15.0" fill="rgb(124,124,199)" rx="2" ry="2" />
<text  x="1137.37" y="175.5" ></text>
</g>
<g >
<title>OMP::ForwardElimination(double*, double*, int, int) [clone ._omp_fn.0] (1,637,064 us, 0.41%)</title><rect x="691.9" y="181" width="4.8" height="15.0" fill="rgb(97,97,203)" rx="2" ry="2" />
<text  x="694.88" y="191.5" ></text>
</g>
<g >
<title>do_futex (122,685,980 us, 30.61%)</title><rect x="29.8" y="149" width="361.2" height="15.0" fill="rgb(110,110,232)" rx="2" ry="2" />
<text  x="32.79" y="159.5" >do_futex</text>
</g>
<g >
<title>__prepare_exit_to_usermode (144,088,958 us, 35.95%)</title><rect x="710.2" y="101" width="424.2" height="15.0" fill="rgb(103,103,218)" rx="2" ry="2" />
<text  x="713.18" y="111.5" >__prepare_exit_to_usermode</text>
</g>
<g >
<title>entry_SYSCALL_64_after_hwframe (122,685,980 us, 30.61%)</title><rect x="29.8" y="197" width="361.2" height="15.0" fill="rgb(89,89,195)" rx="2" ry="2" />
<text  x="32.79" y="207.5" >entry_SYSCALL_64_after_hwframe</text>
</g>
<g >
<title>__prepare_exit_to_usermode (45,585 us, 0.01%)</title><rect x="696.3" y="85" width="0.1" height="15.0" fill="rgb(132,132,198)" rx="2" ry="2" />
<text  x="699.28" y="95.5" ></text>
</g>
<g >
<title>futex_wait_queue_me (122,685,980 us, 30.61%)</title><rect x="29.8" y="117" width="361.2" height="15.0" fill="rgb(83,83,203)" rx="2" ry="2" />
<text  x="32.79" y="127.5" >futex_wait_queue_me</text>
</g>
<g >
<title>idtentry_exit_cond_rcu (104,449 us, 0.03%)</title><rect x="391.0" y="149" width="0.3" height="15.0" fill="rgb(109,109,206)" rx="2" ry="2" />
<text  x="394.02" y="159.5" ></text>
</g>
<g >
<title>do_syscall_64 (102,091,630 us, 25.47%)</title><rect x="391.3" y="165" width="300.6" height="15.0" fill="rgb(134,134,233)" rx="2" ry="2" />
<text  x="394.33" y="175.5" >do_syscall_64</text>
</g>
<g >
<title>do_syscall_64 (3,516,332 us, 0.88%)</title><rect x="696.7" y="133" width="10.4" height="15.0" fill="rgb(121,121,236)" rx="2" ry="2" />
<text  x="699.70" y="143.5" ></text>
</g>
<g >
<title>sysvec_apic_timer_interrupt (144,088,958 us, 35.95%)</title><rect x="710.2" y="149" width="424.2" height="15.0" fill="rgb(97,97,226)" rx="2" ry="2" />
<text  x="713.18" y="159.5" >sysvec_apic_timer_interrupt</text>
</g>
<g >
<title>- (3,516,675 us, 0.88%)</title><rect x="696.7" y="165" width="10.4" height="15.0" fill="rgb(200,200,200)" rx="2" ry="2" />
<text  x="699.70" y="175.5" ></text>
</g>
<g >
<title>[Missed Kernel Stack] (1,063,825 us, 0.27%)</title><rect x="707.1" y="165" width="3.1" height="15.0" fill="rgb(86,86,199)" rx="2" ry="2" />
<text  x="710.05" y="175.5" ></text>
</g>
<g >
<title>do_syscall_64 (122,685,980 us, 30.61%)</title><rect x="29.8" y="181" width="361.2" height="15.0" fill="rgb(117,117,226)" rx="2" ry="2" />
<text  x="32.79" y="191.5" >do_syscall_64</text>
</g>
<g >
<title>futex_wait_queue_me (3,516,332 us, 0.88%)</title><rect x="696.7" y="69" width="10.4" height="15.0" fill="rgb(87,87,210)" rx="2" ry="2" />
<text  x="699.70" y="79.5" ></text>
</g>
<g >
<title>asm_sysvec_apic_timer_interrupt (5,922,627 us, 1.48%)</title><rect x="10.4" y="197" width="17.4" height="15.0" fill="rgb(111,111,206)" rx="2" ry="2" />
<text  x="13.35" y="207.5" ></text>
</g>
<g >
<title>[Missed User Stack] (129,406,696 us, 32.29%)</title><rect x="10.0" y="213" width="381.0" height="15.0" fill="rgb(134,134,194)" rx="2" ry="2" />
<text  x="13.00" y="223.5" >[Missed User Stack]</text>
</g>
<g >
<title>idtentry_exit_cond_rcu (1,496,876 us, 0.37%)</title><rect x="691.9" y="117" width="4.4" height="15.0" fill="rgb(96,96,204)" rx="2" ry="2" />
<text  x="694.88" y="127.5" ></text>
</g>
<g >
<title>__prepare_exit_to_usermode (240,028 us, 0.06%)</title><rect x="27.8" y="133" width="0.7" height="15.0" fill="rgb(105,105,208)" rx="2" ry="2" />
<text  x="30.79" y="143.5" ></text>
</g>
<g >
<title>finish_task_switch (439,278 us, 0.11%)</title><rect x="28.5" y="101" width="1.3" height="15.0" fill="rgb(129,129,232)" rx="2" ry="2" />
<text  x="31.49" y="111.5" ></text>
</g>
<g >
<title>__x64_sys_futex (102,091,630 us, 25.47%)</title><rect x="391.3" y="149" width="300.6" height="15.0" fill="rgb(126,126,203)" rx="2" ry="2" />
<text  x="394.33" y="159.5" >__x64_sys_futex</text>
</g>
<g >
<title>omp_get_num_threads (36,302 us, 0.01%)</title><rect x="1189.9" y="197" width="0.1" height="15.0" fill="rgb(81,81,234)" rx="2" ry="2" />
<text  x="1192.89" y="207.5" ></text>
</g>
<g >
<title>__prepare_exit_to_usermode (4,424,357 us, 1.10%)</title><rect x="1152.5" y="101" width="13.0" height="15.0" fill="rgb(96,96,191)" rx="2" ry="2" />
<text  x="1155.48" y="111.5" ></text>
</g>
<g >
<title>prepare_exit_to_usermode (1,496,876 us, 0.37%)</title><rect x="691.9" y="101" width="4.4" height="15.0" fill="rgb(89,89,239)" rx="2" ry="2" />
<text  x="694.88" y="111.5" ></text>
</g>
<g >
<title>schedule (6,152,279 us, 1.53%)</title><rect x="1134.4" y="85" width="18.1" height="15.0" fill="rgb(133,133,200)" rx="2" ry="2" />
<text  x="1137.37" y="95.5" ></text>
</g>
<g >
<title>__prepare_exit_to_usermode (5,922,627 us, 1.48%)</title><rect x="10.4" y="133" width="17.4" height="15.0" fill="rgb(100,100,195)" rx="2" ry="2" />
<text  x="13.35" y="143.5" ></text>
</g>
<g >
<title>sysvec_reschedule_ipi (439,278 us, 0.11%)</title><rect x="28.5" y="181" width="1.3" height="15.0" fill="rgb(136,136,234)" rx="2" ry="2" />
<text  x="31.49" y="191.5" ></text>
</g>
<g >
<title>schedule (5,922,627 us, 1.48%)</title><rect x="10.4" y="117" width="17.4" height="15.0" fill="rgb(120,120,236)" rx="2" ry="2" />
<text  x="13.35" y="127.5" ></text>
</g>
<g >
<title>[Missed Kernel Stack] (1,912,537 us, 0.48%)</title><rect x="1165.5" y="181" width="5.6" height="15.0" fill="rgb(99,99,191)" rx="2" ry="2" />
<text  x="1168.51" y="191.5" ></text>
</g>
<g >
<title>- (102,213,876 us, 25.50%)</title><rect x="391.0" y="197" width="300.9" height="15.0" fill="rgb(200,200,200)" rx="2" ry="2" />
<text  x="393.97" y="207.5" >-</text>
</g>
<g >
<title>sysvec_reschedule_ipi (4,424,357 us, 1.10%)</title><rect x="1152.5" y="149" width="13.0" height="15.0" fill="rgb(99,99,205)" rx="2" ry="2" />
<text  x="1155.48" y="159.5" ></text>
</g>
<g >
<title>idtentry_exit_cond_rcu (439,278 us, 0.11%)</title><rect x="28.5" y="165" width="1.3" height="15.0" fill="rgb(116,116,202)" rx="2" ry="2" />
<text  x="31.49" y="175.5" ></text>
</g>
<g >
<title>schedule (102,091,630 us, 25.47%)</title><rect x="391.3" y="85" width="300.6" height="15.0" fill="rgb(90,90,227)" rx="2" ry="2" />
<text  x="394.33" y="95.5" >schedule</text>
</g>
<g >
<title>schedule (439,278 us, 0.11%)</title><rect x="28.5" y="117" width="1.3" height="15.0" fill="rgb(133,133,241)" rx="2" ry="2" />
<text  x="31.49" y="127.5" ></text>
</g>
<g >
<title>futex_wait (3,516,332 us, 0.88%)</title><rect x="696.7" y="85" width="10.4" height="15.0" fill="rgb(121,121,215)" rx="2" ry="2" />
<text  x="699.70" y="95.5" ></text>
</g>
<g >
<title>schedule (79,336 us, 0.02%)</title><rect x="696.4" y="69" width="0.3" height="15.0" fill="rgb(98,98,215)" rx="2" ry="2" />
<text  x="699.42" y="79.5" ></text>
</g>
<g >
<title>finish_task_switch (1,496,876 us, 0.37%)</title><rect x="691.9" y="53" width="4.4" height="15.0" fill="rgb(83,83,243)" rx="2" ry="2" />
<text  x="694.88" y="63.5" ></text>
</g>
<g >
<title>finish_task_switch (5,922,627 us, 1.48%)</title><rect x="10.4" y="101" width="17.4" height="15.0" fill="rgb(132,132,195)" rx="2" ry="2" />
<text  x="13.35" y="111.5" ></text>
</g>
<g >
<title>futex_wait (122,685,980 us, 30.61%)</title><rect x="29.8" y="133" width="361.2" height="15.0" fill="rgb(138,138,243)" rx="2" ry="2" />
<text  x="32.79" y="143.5" >futex_wait</text>
</g>
<g >
<title>finish_task_switch (240,028 us, 0.06%)</title><rect x="27.8" y="101" width="0.7" height="15.0" fill="rgb(87,87,210)" rx="2" ry="2" />
<text  x="30.79" y="111.5" ></text>
</g>
<g >
<title>idtentry_exit_cond_rcu (6,152,279 us, 1.53%)</title><rect x="1134.4" y="133" width="18.1" height="15.0" fill="rgb(132,132,226)" rx="2" ry="2" />
<text  x="1137.37" y="143.5" ></text>
</g>
<g >
<title>futex_wait (102,091,630 us, 25.47%)</title><rect x="391.3" y="117" width="300.6" height="15.0" fill="rgb(127,127,215)" rx="2" ry="2" />
<text  x="394.33" y="127.5" >futex_wait</text>
</g>
<g >
<title>finish_task_switch (4,424,357 us, 1.10%)</title><rect x="1152.5" y="69" width="13.0" height="15.0" fill="rgb(132,132,211)" rx="2" ry="2" />
<text  x="1155.48" y="79.5" ></text>
</g>
<g >
<title>do_futex (102,091,630 us, 25.47%)</title><rect x="391.3" y="133" width="300.6" height="15.0" fill="rgb(118,118,199)" rx="2" ry="2" />
<text  x="394.33" y="143.5" >do_futex</text>
</g>
<g >
<title>finish_task_switch (122,685,980 us, 30.61%)</title><rect x="29.8" y="85" width="361.2" height="15.0" fill="rgb(115,115,203)" rx="2" ry="2" />
<text  x="32.79" y="95.5" >finish_task_switch</text>
</g>
<g >
<title>[Missed Kernel Stack] (118,783 us, 0.03%)</title><rect x="10.0" y="197" width="0.4" height="15.0" fill="rgb(89,89,234)" rx="2" ry="2" />
<text  x="13.00" y="207.5" ></text>
</g>
<g >
<title>schedule (45,585 us, 0.01%)</title><rect x="696.3" y="69" width="0.1" height="15.0" fill="rgb(129,129,191)" rx="2" ry="2" />
<text  x="699.28" y="79.5" ></text>
</g>
<g >
<title>ompge (400,824,245 us, 100.00%)</title><rect x="10.0" y="229" width="1180.0" height="15.0" fill="rgb(109,109,241)" rx="2" ry="2" />
<text  x="13.00" y="239.5" >ompge</text>
</g>
<g >
<title>idtentry_exit_cond_rcu (144,088,958 us, 35.95%)</title><rect x="710.2" y="133" width="424.2" height="15.0" fill="rgb(105,105,200)" rx="2" ry="2" />
<text  x="713.18" y="143.5" >idtentry_exit_cond_rcu</text>
</g>
<g >
<title>prepare_exit_to_usermode (45,585 us, 0.01%)</title><rect x="696.3" y="101" width="0.1" height="15.0" fill="rgb(87,87,224)" rx="2" ry="2" />
<text  x="699.28" y="111.5" ></text>
</g>
<g >
<title>sysvec_irq_work (45,585 us, 0.01%)</title><rect x="696.3" y="133" width="0.1" height="15.0" fill="rgb(111,111,227)" rx="2" ry="2" />
<text  x="699.28" y="143.5" ></text>
</g>
<g >
<title>[unknown] (4,580,500 us, 1.14%)</title><rect x="696.7" y="181" width="13.5" height="15.0" fill="rgb(81,81,222)" rx="2" ry="2" />
<text  x="699.70" y="191.5" ></text>
</g>
<g >
<title>entry_SYSCALL_64_after_hwframe (102,091,630 us, 25.47%)</title><rect x="391.3" y="181" width="300.6" height="15.0" fill="rgb(139,139,241)" rx="2" ry="2" />
<text  x="394.33" y="191.5" >entry_SYSCALL_64_after_hwframe</text>
</g>
<g >
<title>sysvec_apic_timer_interrupt (5,922,627 us, 1.48%)</title><rect x="10.4" y="181" width="17.4" height="15.0" fill="rgb(123,123,244)" rx="2" ry="2" />
<text  x="13.35" y="191.5" ></text>
</g>
<g >
<title>schedule (1,496,876 us, 0.37%)</title><rect x="691.9" y="69" width="4.4" height="15.0" fill="rgb(81,81,217)" rx="2" ry="2" />
<text  x="694.88" y="79.5" ></text>
</g>
<g >
<title>schedule (4,424,357 us, 1.10%)</title><rect x="1152.5" y="85" width="13.0" height="15.0" fill="rgb(115,115,241)" rx="2" ry="2" />
<text  x="1155.48" y="95.5" ></text>
</g>
<g >
<title>schedule (3,516,332 us, 0.88%)</title><rect x="696.7" y="53" width="10.4" height="15.0" fill="rgb(120,120,225)" rx="2" ry="2" />
<text  x="699.70" y="63.5" ></text>
</g>
<g >
<title>prepare_exit_to_usermode (439,278 us, 0.11%)</title><rect x="28.5" y="149" width="1.3" height="15.0" fill="rgb(137,137,196)" rx="2" ry="2" />
<text  x="31.49" y="159.5" ></text>
</g>
<g >
<title>__prepare_exit_to_usermode (1,496,876 us, 0.37%)</title><rect x="691.9" y="85" width="4.4" height="15.0" fill="rgb(136,136,226)" rx="2" ry="2" />
<text  x="694.88" y="95.5" ></text>
</g>
<g >
<title>finish_task_switch (3,516,332 us, 0.88%)</title><rect x="696.7" y="37" width="10.4" height="15.0" fill="rgb(95,95,222)" rx="2" ry="2" />
<text  x="699.70" y="47.5" ></text>
</g>
<g >
<title>sysvec_irq_work (240,028 us, 0.06%)</title><rect x="27.8" y="181" width="0.7" height="15.0" fill="rgb(138,138,243)" rx="2" ry="2" />
<text  x="30.79" y="191.5" ></text>
</g>
<g >
<title>- (154,665,594 us, 38.59%)</title><rect x="710.2" y="181" width="455.3" height="15.0" fill="rgb(200,200,200)" rx="2" ry="2" />
<text  x="713.18" y="191.5" >-</text>
</g>
<g >
<title>idtentry_exit_cond_rcu (45,585 us, 0.01%)</title><rect x="696.3" y="117" width="0.1" height="15.0" fill="rgb(109,109,225)" rx="2" ry="2" />
<text  x="699.28" y="127.5" ></text>
</g>
<g >
<title>schedule (240,028 us, 0.06%)</title><rect x="27.8" y="117" width="0.7" height="15.0" fill="rgb(124,124,244)" rx="2" ry="2" />
<text  x="30.79" y="127.5" ></text>
</g>
<g >
<title>[unknown] (271,416,079 us, 67.71%)</title><rect x="391.0" y="213" width="799.0" height="15.0" fill="rgb(92,92,216)" rx="2" ry="2" />
<text  x="393.97" y="223.5" >[unknown]</text>
</g>
<g >
<title>sysvec_irq_work (6,152,279 us, 1.53%)</title><rect x="1134.4" y="149" width="18.1" height="15.0" fill="rgb(131,131,223)" rx="2" ry="2" />
<text  x="1137.37" y="159.5" ></text>
</g>
<g >
<title>finish_task_switch (79,336 us, 0.02%)</title><rect x="696.4" y="53" width="0.3" height="15.0" fill="rgb(105,105,197)" rx="2" ry="2" />
<text  x="699.42" y="63.5" ></text>
</g>
<g >
<title>futex_wait_queue_me (102,091,630 us, 25.47%)</title><rect x="391.3" y="101" width="300.6" height="15.0" fill="rgb(125,125,229)" rx="2" ry="2" />
<text  x="394.33" y="111.5" >futex_wait_queue_me</text>
</g>
<g >
<title>finish_task_switch (45,585 us, 0.01%)</title><rect x="696.3" y="53" width="0.1" height="15.0" fill="rgb(107,107,201)" rx="2" ry="2" />
<text  x="699.28" y="63.5" ></text>
</g>
<g >
<title>__x64_sys_futex (3,516,332 us, 0.88%)</title><rect x="696.7" y="117" width="10.4" height="15.0" fill="rgb(136,136,192)" rx="2" ry="2" />
<text  x="699.70" y="127.5" ></text>
</g>
<g >
<title>prepare_exit_to_usermode (79,336 us, 0.02%)</title><rect x="696.4" y="101" width="0.3" height="15.0" fill="rgb(138,138,202)" rx="2" ry="2" />
<text  x="699.42" y="111.5" ></text>
</g>
<g >
<title>asm_sysvec_reschedule_ipi (4,424,357 us, 1.10%)</title><rect x="1152.5" y="165" width="13.0" height="15.0" fill="rgb(89,89,234)" rx="2" ry="2" />
<text  x="1155.48" y="175.5" ></text>
</g>
<g >
<title>asm_sysvec_apic_timer_interrupt (1,496,876 us, 0.37%)</title><rect x="691.9" y="149" width="4.4" height="15.0" fill="rgb(105,105,208)" rx="2" ry="2" />
<text  x="694.88" y="159.5" ></text>
</g>
<g >
<title>asm_sysvec_reschedule_ipi (439,278 us, 0.11%)</title><rect x="28.5" y="197" width="1.3" height="15.0" fill="rgb(125,125,224)" rx="2" ry="2" />
<text  x="31.49" y="207.5" ></text>
</g>
<g >
<title>schedule (122,685,980 us, 30.61%)</title><rect x="29.8" y="101" width="361.2" height="15.0" fill="rgb(97,97,190)" rx="2" ry="2" />
<text  x="32.79" y="111.5" >schedule</text>
</g>
<g >
<title>prepare_exit_to_usermode (104,449 us, 0.03%)</title><rect x="391.0" y="133" width="0.3" height="15.0" fill="rgb(122,122,190)" rx="2" ry="2" />
<text  x="394.02" y="143.5" ></text>
</g>
<g >
<title>prepare_exit_to_usermode (4,424,357 us, 1.10%)</title><rect x="1152.5" y="117" width="13.0" height="15.0" fill="rgb(116,116,219)" rx="2" ry="2" />
<text  x="1155.48" y="127.5" ></text>
</g>
<g >
<title>finish_task_switch (144,088,958 us, 35.95%)</title><rect x="710.2" y="69" width="424.2" height="15.0" fill="rgb(124,124,215)" rx="2" ry="2" />
<text  x="713.18" y="79.5" >finish_task_switch</text>
</g>
<g >
<title>do_futex (3,516,332 us, 0.88%)</title><rect x="696.7" y="101" width="10.4" height="15.0" fill="rgb(127,127,224)" rx="2" ry="2" />
<text  x="699.70" y="111.5" ></text>
</g>
<g >
<title>sysvec_reschedule_ipi (79,336 us, 0.02%)</title><rect x="696.4" y="133" width="0.3" height="15.0" fill="rgb(124,124,224)" rx="2" ry="2" />
<text  x="699.42" y="143.5" ></text>
</g>
<g >
<title>prepare_exit_to_usermode (6,152,279 us, 1.53%)</title><rect x="1134.4" y="117" width="18.1" height="15.0" fill="rgb(117,117,210)" rx="2" ry="2" />
<text  x="1137.37" y="127.5" ></text>
</g>
<g >
<title>prepare_exit_to_usermode (240,028 us, 0.06%)</title><rect x="27.8" y="149" width="0.7" height="15.0" fill="rgb(99,99,244)" rx="2" ry="2" />
<text  x="30.79" y="159.5" ></text>
</g>
<g >
<title>idtentry_exit_cond_rcu (5,922,627 us, 1.48%)</title><rect x="10.4" y="165" width="17.4" height="15.0" fill="rgb(134,134,236)" rx="2" ry="2" />
<text  x="13.35" y="175.5" ></text>
</g>
<g >
<title>all (400,824,245 us, 100%)</title><rect x="10.0" y="245" width="1180.0" height="15.0" fill="rgb(81,81,190)" rx="2" ry="2" />
<text  x="13.00" y="255.5" ></text>
</g>
<g >
<title>[Missed Kernel Stack] (6,369,704 us, 1.59%)</title><rect x="1171.1" y="197" width="18.8" height="15.0" fill="rgb(85,85,205)" rx="2" ry="2" />
<text  x="1174.14" y="207.5" ></text>
</g>
<g >
<title>sysvec_apic_timer_interrupt (1,496,876 us, 0.37%)</title><rect x="691.9" y="133" width="4.4" height="15.0" fill="rgb(106,106,243)" rx="2" ry="2" />
<text  x="694.88" y="143.5" ></text>
</g>
<g >
<title>finish_task_switch (104,449 us, 0.03%)</title><rect x="391.0" y="85" width="0.3" height="15.0" fill="rgb(134,134,225)" rx="2" ry="2" />
<text  x="394.02" y="95.5" ></text>
</g>
<g >
<title>idtentry_exit_cond_rcu (79,336 us, 0.02%)</title><rect x="696.4" y="117" width="0.3" height="15.0" fill="rgb(81,81,209)" rx="2" ry="2" />
<text  x="699.42" y="127.5" ></text>
</g>
<g >
<title>__prepare_exit_to_usermode (6,152,279 us, 1.53%)</title><rect x="1134.4" y="101" width="18.1" height="15.0" fill="rgb(127,127,234)" rx="2" ry="2" />
<text  x="1137.37" y="111.5" ></text>
</g>
<g >
<title>prepare_exit_to_usermode (144,088,958 us, 35.95%)</title><rect x="710.2" y="117" width="424.2" height="15.0" fill="rgb(122,122,224)" rx="2" ry="2" />
<text  x="713.18" y="127.5" >prepare_exit_to_usermode</text>
</g>
<g >
<title>asm_sysvec_apic_timer_interrupt (144,088,958 us, 35.95%)</title><rect x="710.2" y="165" width="424.2" height="15.0" fill="rgb(99,99,232)" rx="2" ry="2" />
<text  x="713.18" y="175.5" >asm_sysvec_apic_timer_interrupt</text>
</g>
<g >
<title>idtentry_exit_cond_rcu (240,028 us, 0.06%)</title><rect x="27.8" y="165" width="0.7" height="15.0" fill="rgb(130,130,206)" rx="2" ry="2" />
<text  x="30.79" y="175.5" ></text>
</g>
<g >
<title>__prepare_exit_to_usermode (104,449 us, 0.03%)</title><rect x="391.0" y="117" width="0.3" height="15.0" fill="rgb(139,139,195)" rx="2" ry="2" />
<text  x="394.02" y="127.5" ></text>
</g>
<g >
<title>__x64_sys_futex (122,685,980 us, 30.61%)</title><rect x="29.8" y="165" width="361.2" height="15.0" fill="rgb(83,83,207)" rx="2" ry="2" />
<text  x="32.79" y="175.5" >__x64_sys_futex</text>
</g>
<g >
<title>idtentry_exit_cond_rcu (4,424,357 us, 1.10%)</title><rect x="1152.5" y="133" width="13.0" height="15.0" fill="rgb(120,120,204)" rx="2" ry="2" />
<text  x="1155.48" y="143.5" ></text>
</g>
<g >
<title>schedule (144,088,958 us, 35.95%)</title><rect x="710.2" y="85" width="424.2" height="15.0" fill="rgb(81,81,194)" rx="2" ry="2" />
<text  x="713.18" y="95.5" >schedule</text>
</g>
<g >
<title>prepare_exit_to_usermode (5,922,627 us, 1.48%)</title><rect x="10.4" y="149" width="17.4" height="15.0" fill="rgb(118,118,203)" rx="2" ry="2" />
<text  x="13.35" y="159.5" ></text>
</g>
<g >
<title>asm_sysvec_irq_work (240,028 us, 0.06%)</title><rect x="27.8" y="197" width="0.7" height="15.0" fill="rgb(135,135,208)" rx="2" ry="2" />
<text  x="30.79" y="207.5" ></text>
</g>
</g>
</svg>
